<svg width="18" height="21" viewBox="0 0 18 21" fill="none" xmlns="http://www.w3.org/2000/svg">
<path d="M15.0339 13.2435C15.0339 11.263 15.0294 9.28183 15.0339 7.30127C15.0372 6.29608 15.5823 5.67678 16.4182 5.69984C17.2209 5.72178 17.7558 6.33377 17.7575 7.29114C17.765 11.2793 17.765 15.2676 17.7575 19.2561C17.7575 20.2388 17.1719 20.88 16.3462 20.8609C15.5457 20.8423 15.0378 20.2382 15.0339 19.2673C15.0288 17.2586 15.0339 15.2511 15.0339 13.2435Z" fill="white"/>
<path d="M7.99301 15.192C7.99301 16.5847 8.00146 17.9775 7.98965 19.3697C8.00916 19.5566 7.98943 19.7456 7.93169 19.9245C7.87396 20.1034 7.77948 20.2682 7.65436 20.4085C7.52923 20.5487 7.3762 20.6613 7.20505 20.739C7.0339 20.8168 6.84843 20.8579 6.66047 20.8598C6.47164 20.8596 6.2849 20.8202 6.11205 20.7442C5.9392 20.6681 5.78401 20.557 5.65629 20.4179C5.52856 20.2788 5.43106 20.1148 5.36999 19.9361C5.30892 19.7574 5.28559 19.568 5.30146 19.3798C5.28346 16.5414 5.28346 13.7029 5.30146 10.8641C5.28696 10.6756 5.31248 10.4863 5.37638 10.3083C5.44028 10.1304 5.5411 9.96807 5.67222 9.8319C5.80333 9.69574 5.96178 9.58887 6.13715 9.5183C6.31251 9.44772 6.50084 9.41506 6.68972 9.42244C7.47722 9.44044 7.98346 10.0131 7.98796 10.935C8.0009 12.3536 7.99301 13.7711 7.99301 15.192Z" fill="white"/>
<path d="M10.1853 16.5651C10.1853 15.6544 10.1729 14.7437 10.1881 13.8335C10.1744 13.653 10.1975 13.4715 10.2558 13.3001C10.3142 13.1287 10.4066 12.9709 10.5277 12.8361C10.6487 12.7014 10.7957 12.5926 10.9599 12.5163C11.1241 12.4399 11.3021 12.3976 11.4831 12.3919C11.664 12.3862 11.8443 12.4172 12.013 12.4831C12.1817 12.549 12.3353 12.6483 12.4645 12.7751C12.5938 12.9019 12.696 13.0536 12.765 13.2211C12.8341 13.3885 12.8684 13.5681 12.8662 13.7492C12.8999 15.677 12.8999 17.6051 12.8662 19.5334C12.8649 19.7115 12.8281 19.8876 12.7579 20.0513C12.6877 20.215 12.5855 20.3631 12.4573 20.4868C12.3292 20.6105 12.1776 20.7074 12.0115 20.7717C11.8454 20.8361 11.6681 20.8667 11.49 20.8616C11.312 20.8565 11.1367 20.816 10.9745 20.7423C10.8123 20.6686 10.6665 20.5633 10.5455 20.4325C10.4246 20.3017 10.331 20.1481 10.2702 19.9807C10.2094 19.8132 10.1826 19.6353 10.1915 19.4574C10.1718 18.4922 10.1859 17.5292 10.1853 16.5651Z" fill="white"/>
<path d="M3.14491 16.5971C3.14491 17.5314 3.15843 18.4663 3.14099 19.4C3.15395 19.5838 3.12941 19.7683 3.06889 19.9423C3.00837 20.1163 2.91311 20.2762 2.78891 20.4123C2.66471 20.5483 2.51418 20.6577 2.34641 20.7338C2.17863 20.8099 1.99714 20.8511 1.81295 20.8549C1.62876 20.8588 1.44571 20.8251 1.27493 20.756C1.10415 20.6869 0.949206 20.5839 0.819477 20.4531C0.689749 20.3223 0.587946 20.1664 0.520271 19.9951C0.452597 19.8238 0.420453 19.6404 0.425789 19.4563C0.401039 17.5614 0.401039 15.666 0.425789 13.77C0.422878 13.5886 0.456561 13.4084 0.524838 13.2403C0.593115 13.0722 0.694598 12.9196 0.823185 12.7916C0.951772 12.6636 1.10484 12.5628 1.27325 12.4953C1.44166 12.4278 1.62197 12.3949 1.80337 12.3986C1.98418 12.3978 2.16325 12.4338 2.32965 12.5045C2.49605 12.5753 2.64625 12.6792 2.7711 12.81C2.89594 12.9408 2.99279 13.0957 3.05571 13.2652C3.11863 13.4347 3.1463 13.6153 3.13704 13.7959C3.16067 14.7279 3.14491 15.6628 3.14491 16.5971Z" fill="white"/>
<path d="M1.37305 8.46058L6.33485 5.38877L11.2967 8.69682L16.4947 1.40964" stroke="white" stroke-miterlimit="10"/>
<path d="M6.46875 6.75C7.2454 6.75 7.875 6.1204 7.875 5.34375C7.875 4.5671 7.2454 3.9375 6.46875 3.9375C5.6921 3.9375 5.0625 4.5671 5.0625 5.34375C5.0625 6.1204 5.6921 6.75 6.46875 6.75Z" fill="white"/>
<path d="M1.40625 9.5625C2.1829 9.5625 2.8125 8.9329 2.8125 8.15625C2.8125 7.3796 2.1829 6.75 1.40625 6.75C0.6296 6.75 0 7.3796 0 8.15625C0 8.9329 0.6296 9.5625 1.40625 9.5625Z" fill="white"/>
<path d="M10.9688 10.125C11.7454 10.125 12.375 9.4954 12.375 8.71875C12.375 7.9421 11.7454 7.3125 10.9688 7.3125C10.1921 7.3125 9.5625 7.9421 9.5625 8.71875C9.5625 9.4954 10.1921 10.125 10.9688 10.125Z" fill="white"/>
<path d="M16.5938 2.8125C17.3704 2.8125 18 2.1829 18 1.40625C18 0.6296 17.3704 0 16.5938 0C15.8171 0 15.1875 0.6296 15.1875 1.40625C15.1875 2.1829 15.8171 2.8125 16.5938 2.8125Z" fill="white"/>
</svg>
