<svg width="22" height="20" viewBox="0 0 22 20" fill="none" xmlns="http://www.w3.org/2000/svg">
<path d="M11.5455 0C12.1058 0.102603 12.6662 0.186791 13.2265 0.30781C14.4504 0.583255 15.6093 1.06941 16.6445 1.74162C17.2776 2.14678 17.4429 2.68873 17.0927 3.17544C16.7425 3.66215 16.1402 3.70161 15.5126 3.30961C13.9641 2.31475 12.1124 1.82096 10.2382 1.90307C8.36391 1.98517 6.56923 2.63869 5.12603 3.7646C3.68283 4.89052 2.66976 6.42748 2.24031 8.14262C1.81085 9.85776 1.98842 11.6576 2.7461 13.2695C3.50379 14.8813 4.8003 16.2174 6.4392 17.0752C8.07811 17.9329 9.97009 18.2657 11.8285 18.0231C13.6869 17.7805 15.4105 16.9757 16.738 15.7306C18.0656 14.4855 18.9248 12.8681 19.1856 11.1232C19.3383 10.0438 19.268 8.94691 18.9782 7.89256C18.9375 7.76807 18.9245 7.63702 18.9401 7.50761C18.9557 7.3782 18.9996 7.2532 19.069 7.14043C19.1384 7.02765 19.2318 6.92953 19.3434 6.85219C19.455 6.77485 19.5823 6.71996 19.7176 6.69094C19.8528 6.66192 19.9929 6.65939 20.1292 6.68353C20.2655 6.70766 20.395 6.75793 20.5097 6.8312C20.6243 6.90447 20.7217 6.99915 20.7956 7.10935C20.8696 7.21954 20.9185 7.34286 20.9394 7.47162C21.0655 8.03462 21.1747 8.60026 21.2896 9.16326V10.8549C21.2392 11.118 21.1831 11.3811 21.1383 11.6442C20.3314 16.3113 15.9973 19.8787 11.0132 19.9945C8.50822 20.0727 6.05418 19.3185 4.08316 17.8646C2.11215 16.4108 0.750559 14.3505 0.238139 12.0467C0.148486 11.6494 0.0784456 11.2574 0 10.8444V9.15273C0.0252147 9.05539 0.0616358 8.95805 0.0784456 8.85808C0.750837 4.64872 3.23121 1.85037 7.51957 0.46303C8.25057 0.267149 8.9934 0.11253 9.74407 0H11.5455Z" fill="white"/>
<path d="M21.2896 3.07545C21.118 3.31737 20.9308 3.5493 20.7293 3.77C17.6289 6.79548 14.5237 9.81921 11.4139 12.8412C10.7471 13.491 10.2932 13.491 9.62366 12.8412C8.602 11.845 7.58034 10.8487 6.55868 9.85253C6.44911 9.75589 6.34793 9.6512 6.2561 9.53946C6.10915 9.34405 6.04444 9.10448 6.07444 8.86693C6.10444 8.62938 6.22704 8.41067 6.4186 8.25297C6.5097 8.17445 6.61662 8.11384 6.73304 8.07469C6.84946 8.03555 6.97305 8.01867 7.09653 8.02504C7.22 8.03142 7.34087 8.06092 7.45202 8.11181C7.56318 8.1627 7.66237 8.23395 7.74377 8.32137C8.58426 9.11063 9.42474 9.93935 10.2456 10.7523C10.3312 10.8468 10.4108 10.9461 10.4838 11.0496L13.375 8.23982L19.3957 2.36775C20.1438 1.63901 20.7685 1.71793 21.2896 2.60453V3.07545Z" fill="white"/>
</svg>
