<svg width="26" height="20" viewBox="0 0 26 20" fill="none" xmlns="http://www.w3.org/2000/svg">
<path d="M12.6555 5.18933L4.3337 11.9673V19.2851C4.3337 19.4745 4.40978 19.6562 4.54521 19.7901C4.68064 19.9241 4.86433 19.9994 5.05585 19.9994L10.1135 19.9867C10.2084 19.9862 10.3022 19.9674 10.3896 19.9311C10.4771 19.8948 10.5565 19.8418 10.6232 19.7752C10.69 19.7086 10.7428 19.6296 10.7787 19.5428C10.8146 19.456 10.8329 19.363 10.8325 19.2692V14.996C10.8333 14.807 10.9099 14.626 11.0454 14.4927C11.1808 14.3595 11.3642 14.2847 11.5553 14.2849H14.4439C14.6354 14.2849 14.8191 14.3601 14.9546 14.4941C15.09 14.6281 15.1661 14.8097 15.1661 14.9992V19.2692C15.1657 19.3632 15.1842 19.4564 15.2203 19.5433C15.2564 19.6303 15.3096 19.7093 15.3767 19.7759C15.4438 19.8425 15.5235 19.8954 15.6113 19.9314C15.6991 19.9675 15.7932 19.986 15.8882 19.986L20.944 20C21.1355 20 21.3192 19.9247 21.4546 19.7908C21.59 19.6568 21.6661 19.4751 21.6661 19.2857V11.9635L13.3456 5.18933C13.2478 5.11146 13.1261 5.069 13.0006 5.069C12.875 5.069 12.7533 5.11146 12.6555 5.18933ZM25.8001 9.7971L22.0269 6.72081V0.538369C22.0269 0.396242 21.9698 0.259936 21.8682 0.159437C21.7666 0.0589377 21.6288 0.00247782 21.4851 0.00247782H18.9572C18.8135 0.00247782 18.6757 0.0589377 18.5741 0.159437C18.4725 0.259936 18.4155 0.396242 18.4155 0.538369V3.77658L14.3714 0.488209C13.9836 0.172574 13.497 0 12.9948 0C12.4926 0 12.006 0.172574 11.6182 0.488209L0.196533 9.79647C0.141663 9.84135 0.0962739 9.89648 0.0629611 9.95872C0.0296483 10.021 0.00906488 10.0891 0.00238777 10.1592C-0.00428934 10.2293 0.0030708 10.3 0.0240474 10.3673C0.0450239 10.4346 0.0792055 10.4972 0.124638 10.5514L1.2756 11.9356C1.32083 11.99 1.37647 12.0351 1.43932 12.0682C1.50218 12.1013 1.57102 12.1219 1.64191 12.1286C1.7128 12.1354 1.78435 12.1283 1.85246 12.1077C1.92056 12.0871 1.9839 12.0534 2.03884 12.0086L12.6555 3.35879C12.7533 3.28076 12.8752 3.2382 13.0009 3.2382C13.1265 3.2382 13.2484 3.28076 13.3462 3.35879L23.9636 12.008C24.0742 12.0985 24.2167 12.1419 24.3597 12.1286C24.5027 12.1152 24.6345 12.0463 24.7262 11.9369L25.8771 10.5527C25.9224 10.4981 25.9563 10.4353 25.9769 10.3677C25.9975 10.3002 26.0044 10.2293 25.9973 10.1591C25.9901 10.0889 25.969 10.0208 25.9352 9.95864C25.9013 9.89652 25.8554 9.84163 25.8001 9.7971Z" fill="white"/>
</svg>
