<svg width="13" height="16" viewBox="0 0 13 16" fill="none" xmlns="http://www.w3.org/2000/svg">
<path d="M0 14.5C0.000109396 14.8978 0.146892 15.2793 0.408079 15.5605C0.669267 15.8418 1.02348 15.9999 1.39286 16H11.6071C11.9765 15.9999 12.3307 15.8418 12.5919 15.5605C12.8531 15.2793 12.9999 14.8978 13 14.5V6H0V14.5ZM9.28571 8.37511C9.28593 8.2757 9.3227 8.18042 9.38797 8.11013C9.45325 8.03983 9.54172 8.00023 9.63403 8H10.795C10.8873 8.00023 10.9757 8.03983 11.041 8.11013C11.1063 8.18042 11.1431 8.2757 11.1433 8.37511V9.62533C11.1431 9.72475 11.1063 9.82002 11.041 9.89032C10.9757 9.96061 10.8873 10.0002 10.795 10.0004H9.63403C9.54172 10.0002 9.45325 9.96061 9.38797 9.89032C9.3227 9.82002 9.28593 9.72475 9.28571 9.62533V8.37511ZM9.28571 12.3751C9.28593 12.2757 9.3227 12.1804 9.38797 12.1101C9.45325 12.0398 9.54172 12.0002 9.63403 12H10.795C10.8873 12.0002 10.9757 12.0398 11.041 12.1101C11.1063 12.1804 11.1431 12.2757 11.1433 12.3751V13.6253C11.1431 13.7247 11.1063 13.82 11.041 13.8903C10.9757 13.9606 10.8873 14.0002 10.795 14.0004H9.63403C9.54172 14.0002 9.45325 13.9606 9.38797 13.8903C9.3227 13.82 9.28593 13.7247 9.28571 13.6253V12.3751ZM5.57143 8.37511C5.57165 8.2757 5.60841 8.18042 5.67369 8.11013C5.73896 8.03983 5.82743 8.00023 5.91975 8H7.08067C7.17298 8.00023 7.26145 8.03983 7.32672 8.11013C7.392 8.18042 7.42877 8.2757 7.42898 8.37511V9.62533C7.42877 9.72475 7.392 9.82002 7.32672 9.89032C7.26145 9.96061 7.17298 10.0002 7.08067 10.0004H5.91975C5.82743 10.0002 5.73896 9.96061 5.67369 9.89032C5.60841 9.82002 5.57165 9.72475 5.57143 9.62533V8.37511ZM5.57143 12.3751C5.57165 12.2757 5.60841 12.1804 5.67369 12.1101C5.73896 12.0398 5.82743 12.0002 5.91975 12H7.08067C7.17298 12.0002 7.26145 12.0398 7.32672 12.1101C7.392 12.1804 7.42877 12.2757 7.42898 12.3751V13.6253C7.42877 13.7247 7.392 13.82 7.32672 13.8903C7.26145 13.9606 7.17298 14.0002 7.08067 14.0004H5.91975C5.82743 14.0002 5.73896 13.9606 5.67369 13.8903C5.60841 13.82 5.57165 13.7247 5.57143 13.6253V12.3751ZM1.85714 8.37511C1.85736 8.2757 1.89413 8.18042 1.9594 8.11013C2.02468 8.03983 2.11315 8.00023 2.20546 8H3.36597C3.45828 8.00023 3.54675 8.03983 3.61203 8.11013C3.6773 8.18042 3.71407 8.2757 3.71429 8.37511V9.62533C3.71407 9.72475 3.6773 9.82002 3.61203 9.89032C3.54675 9.96061 3.45828 10.0002 3.36597 10.0004H2.20546C2.11315 10.0002 2.02468 9.96061 1.9594 9.89032C1.89413 9.82002 1.85736 9.72475 1.85714 9.62533V8.37511ZM1.85714 12.3751C1.85736 12.2757 1.89413 12.1804 1.9594 12.1101C2.02468 12.0398 2.11315 12.0002 2.20546 12H3.36597C3.45828 12.0002 3.54675 12.0398 3.61203 12.1101C3.6773 12.1804 3.71407 12.2757 3.71429 12.3751V13.6253C3.71407 13.7247 3.6773 13.82 3.61203 13.8903C3.54675 13.9606 3.45828 14.0002 3.36597 14.0004H2.20546C2.11315 14.0002 2.02468 13.9606 1.9594 13.8903C1.89413 13.82 1.85736 13.7247 1.85714 13.6253V12.3751ZM11.6071 2H10.2143V0.5C10.214 0.3675 10.1649 0.240527 10.0779 0.146835C9.99094 0.0531434 9.87304 0.000351928 9.75 0L8.82143 0C8.69839 0.000351928 8.58049 0.0531434 8.49349 0.146835C8.40649 0.240527 8.35747 0.3675 8.35714 0.5V2H4.64286V0.5C4.64253 0.3675 4.59351 0.240527 4.50651 0.146835C4.41951 0.0531434 4.30161 0.000351928 4.17857 0H3.25C3.12696 0.000351928 3.00906 0.0531434 2.92206 0.146835C2.83506 0.240527 2.78604 0.3675 2.78571 0.5V2H1.39286C1.02348 2.00012 0.669267 2.15819 0.408079 2.43947C0.146892 2.72075 0.000109396 3.10221 0 3.5L0 5H13V3.5C12.9999 3.10221 12.8531 2.72075 12.5919 2.43947C12.3307 2.15819 11.9765 2.00012 11.6071 2Z" fill="#2299D4"/>
</svg>
