<svg width="38" height="27" viewBox="0 0 38 27" fill="none" xmlns="http://www.w3.org/2000/svg">
<path d="M23.5791 26.5879V25.7868C23.5791 23.5451 23.5962 21.3033 23.5791 19.0615C23.5444 18.845 23.5916 18.6236 23.712 18.4377C23.8325 18.2519 24.0182 18.1141 24.2352 18.0494C26.2856 17.1824 28.336 16.2593 30.3863 15.356L30.9126 15.1385C30.9126 15.3099 30.9536 15.4451 30.9536 15.5802C30.9536 18.033 30.9536 20.4846 30.9536 22.9352C30.9536 23.1824 30.9536 23.3967 30.6563 23.5286C28.4009 24.5176 26.1523 25.5066 23.9003 26.4956C23.7952 26.5322 23.6879 26.563 23.5791 26.5879Z" fill="#2299D4"/>
<path d="M15.8527 15.1088C16.6762 15.4681 17.4109 15.7681 18.1286 16.1209C18.1879 16.1688 18.2363 16.2281 18.2704 16.2951C18.3045 16.3621 18.3237 16.4353 18.3268 16.5099C18.3507 16.9484 18.3507 17.3868 18.3268 17.8286C18.3073 17.9403 18.3314 18.0551 18.3946 18.1507C18.4577 18.2463 18.5553 18.3159 18.6685 18.3462C19.2118 18.5604 19.7415 18.8044 20.3566 19.0714V17.0934C21.3374 17.5253 22.2224 17.9077 23.0904 18.3099C23.169 18.3495 23.2134 18.5308 23.2134 18.6396C23.2134 21.2242 23.2134 23.8066 23.2134 26.3868C23.2038 26.449 23.1866 26.5098 23.1622 26.5681C23.0187 26.5154 22.8751 26.4791 22.7453 26.4198C20.5673 25.4703 18.3951 24.511 16.2286 23.5418C16.1392 23.4995 16.0606 23.439 15.998 23.3644C15.9354 23.2898 15.8905 23.203 15.8663 23.1099C15.8458 20.4824 15.8527 17.8517 15.8527 15.1088Z" fill="#2299D4"/>
<path d="M20.6505 16.8626C20.835 16.7637 20.9444 16.6945 21.064 16.6418C23.2374 15.6923 25.3732 14.7363 27.5363 13.8066C27.7767 13.7208 28.0409 13.7208 28.2813 13.8066C29.0536 14.1099 29.8054 14.4659 30.6426 14.8385C30.5195 14.919 30.3917 14.9928 30.2599 15.0593C28.0899 16.0187 25.9199 16.9813 23.7431 17.9176C23.5225 17.9958 23.2803 17.9958 23.0597 17.9176C22.26 17.5912 21.4912 17.2319 20.6505 16.8626Z" fill="#2299D4"/>
<path d="M16.0919 14.8582L19.1675 13.5033C20.4524 12.9363 21.7338 12.3593 23.029 11.8187C23.2685 11.7345 23.531 11.7345 23.7705 11.8187C24.4232 12.0626 25.052 12.3692 25.7696 12.6857C25.568 12.7945 25.445 12.867 25.3185 12.9231C23.1759 13.8692 21.0333 14.8055 18.8975 15.7615C18.7747 15.8256 18.6373 15.8591 18.4977 15.8591C18.3581 15.8591 18.2207 15.8256 18.0979 15.7615C17.4759 15.4516 16.8437 15.1879 16.0919 14.8582Z" fill="#2299D4"/>
<path d="M18.1115 0.873628C18.3948 0.986735 18.6277 1.19242 18.7696 1.45462C18.9114 1.71683 18.9531 2.01883 18.8872 2.30769C19.9807 2.30769 21.0093 2.30769 22.0414 2.30769C22.3932 2.29496 22.7454 2.32263 23.0905 2.39011C23.5829 2.50638 24.02 2.78027 24.3303 3.16706C24.6406 3.55385 24.8059 4.03071 24.7991 4.51978C24.823 6.4978 24.7991 8.49561 24.7991 10.4802C24.7991 10.8099 24.7342 11.1231 24.307 11.1066C23.8798 11.0901 23.8628 10.7604 23.8662 10.4473C23.8662 8.55495 23.8662 6.66264 23.8662 4.77033C23.8662 3.71539 23.3433 3.19451 22.2566 3.18132C21.1699 3.16813 20.0662 3.18132 18.9863 3.18132C18.9354 3.49273 18.853 3.79858 18.7403 4.09451C18.5147 4.52637 18.0773 4.61539 17.5955 4.61539C15.7912 4.61539 13.9869 4.61539 12.1825 4.61539C10.9592 4.61539 10.7268 4.42088 10.5525 3.21758C9.29153 3.21758 8.02373 3.16484 6.76617 3.24066C6.04171 3.28022 5.63847 3.86044 5.63164 4.6022C5.63164 5.85165 5.63164 7.1011 5.63164 8.34725V23.3374C5.63164 24.567 6.13056 25.0418 7.41204 25.0418H17.4725C17.6467 25.0175 17.8241 25.0254 17.9953 25.0648C18.1457 25.1308 18.3541 25.3088 18.337 25.4275C18.3184 25.5191 18.2799 25.6058 18.2239 25.682C18.1679 25.7581 18.0958 25.822 18.0124 25.8692C17.8257 25.9253 17.6286 25.9411 17.4349 25.9154C14.1577 25.9154 10.884 25.8923 7.60682 25.9154C6.16132 25.9154 5.07804 25.5198 4.6748 23.9077V4.28572C4.8525 3.65604 5.08146 3.02308 5.71707 2.71978C6.18536 2.49621 6.69561 2.36614 7.21725 2.33736C8.3347 2.27473 9.44531 2.30769 10.5935 2.30769C10.5764 1.62198 10.7712 1.12088 11.4 0.870331L18.1115 0.873628ZM17.9406 3.68901V1.82308H11.5469V3.68901H17.9406Z" fill="#2299D4"/>
<path d="M17.9339 3.68901H11.547V1.82307H17.9339V3.68901Z" fill="white"/>
<rect x="13.9333" y="9" width="8.86667" height="1.28571" rx="0.642857" fill="#2299D4"/>
<ellipse cx="10.1333" cy="7.71428" rx="2.53333" ry="2.57143" fill="#2299D4"/>
<ellipse cx="10.1333" cy="14.1429" rx="2.53333" ry="2.57143" fill="#2299D4"/>
<ellipse cx="10.1333" cy="20.5714" rx="2.53333" ry="2.57143" fill="#2299D4"/>
<path d="M11.5 6.72287L11.4885 6.74473C11.4583 6.80222 11.4253 6.85747 11.3896 6.91015L11.3865 6.91467L11.3864 6.91458C10.8704 7.59383 10.3536 8.27267 9.83609 8.95113L11.5 6.72287ZM11.5 6.72287V6.69817M11.5 6.72287V6.69817M11.5 6.69817V6.59244V6.5716L11.4917 6.5525C11.4678 6.49753 11.44 6.44882 11.4067 6.41103C11.3731 6.37293 11.329 6.3407 11.2733 6.33127C11.1597 6.31206 11.0693 6.39462 11.0053 6.47873L11.0052 6.47878L10.0034 7.79692L10.0033 7.79706L9.60766 8.31568M11.5 6.69817L9.60766 8.31568M9.60766 8.31568C9.48252 8.14867 9.35433 7.97884 9.22598 7.81618C9.20566 7.7875 9.18004 7.76249 9.1497 7.74376C9.11821 7.7243 9.08255 7.71222 9.04494 7.7096C9.00728 7.70698 8.97017 7.71403 8.93619 7.72943C8.90273 7.74461 8.87372 7.76722 8.8501 7.79445C8.80253 7.8477 8.77503 7.91746 8.76833 7.98904C8.76158 8.06109 8.77581 8.13531 8.81078 8.19804L8.81072 8.19808L8.81273 8.20137C8.8301 8.22988 8.84932 8.25686 8.87029 8.28202L9.12391 8.61563L9.37895 8.95111L9.37909 8.95129C9.40953 8.99113 9.44167 9.02669 9.47679 9.05285C9.51272 9.07961 9.55657 9.1 9.6077 9.1C9.65885 9.1 9.7027 9.0796 9.73862 9.05278C9.77368 9.02661 9.80571 8.99105 9.836 8.95124L9.60766 8.31568Z" fill="white" stroke="white" stroke-width="0.2"/>
<path d="M11.5 13.1514L11.4885 13.1733C11.4583 13.2308 11.4253 13.286 11.3896 13.3387L11.3865 13.3432L11.3864 13.3432C10.8704 14.0224 10.3536 14.7012 9.83609 15.3797L11.5 13.1514ZM11.5 13.1514V13.1267M11.5 13.1514V13.1267M11.5 13.1267V13.021V13.0002L11.4917 12.9811C11.4678 12.9261 11.44 12.8774 11.4067 12.8396C11.3731 12.8015 11.329 12.7693 11.2733 12.7598C11.1597 12.7406 11.0693 12.8232 11.0053 12.9073L11.0052 12.9073L10.0034 14.2255L10.0033 14.2256L9.60766 14.7443M11.5 13.1267L9.60766 14.7443M9.60766 14.7443C9.48252 14.5772 9.35433 14.4074 9.22598 14.2448C9.20566 14.2161 9.18004 14.1911 9.1497 14.1723C9.11821 14.1529 9.08255 14.1408 9.04494 14.1382C9.00728 14.1356 8.97017 14.1426 8.93619 14.158C8.90273 14.1732 8.87372 14.1958 8.8501 14.223C8.80253 14.2763 8.77503 14.346 8.76833 14.4176C8.76158 14.4897 8.77581 14.5639 8.81078 14.6266L8.81072 14.6266L8.81273 14.6299C8.8301 14.6585 8.84932 14.6854 8.87029 14.7106L9.12391 15.0442L9.37895 15.3797L9.37909 15.3799C9.40953 15.4197 9.44167 15.4553 9.47679 15.4814C9.51272 15.5082 9.55657 15.5286 9.6077 15.5286C9.65885 15.5286 9.7027 15.5082 9.73862 15.4814C9.77368 15.4552 9.80571 15.4196 9.836 15.3798L9.60766 14.7443Z" fill="white" stroke="white" stroke-width="0.2"/>
<path d="M11.5 19.58L11.4885 19.6019C11.4583 19.6594 11.4253 19.7146 11.3896 19.7673L11.3865 19.7718L11.3864 19.7717C10.8704 20.451 10.3536 21.1298 9.83609 21.8083L11.5 19.58ZM11.5 19.58V19.5553M11.5 19.58V19.5553M11.5 19.5553V19.4496V19.4288L11.4917 19.4096C11.4678 19.3547 11.44 19.306 11.4067 19.2682C11.3731 19.2301 11.329 19.1978 11.2733 19.1884C11.1597 19.1692 11.0693 19.2518 11.0053 19.3359L11.0052 19.3359L10.0034 20.6541L10.0033 20.6542L9.60766 21.1728M11.5 19.5553L9.60766 21.1728M9.60766 21.1728C9.48252 21.0058 9.35433 20.836 9.22598 20.6733C9.20566 20.6446 9.18004 20.6196 9.1497 20.6009C9.11821 20.5815 9.08255 20.5694 9.04494 20.5667C9.00728 20.5641 8.97017 20.5712 8.93619 20.5866C8.90273 20.6018 8.87372 20.6244 8.8501 20.6516C8.80253 20.7048 8.77503 20.7746 8.76833 20.8462C8.76158 20.9182 8.77581 20.9925 8.81078 21.0552L8.81072 21.0552L8.81273 21.0585C8.8301 21.087 8.84932 21.114 8.87029 21.1392L9.12391 21.4728L9.37895 21.8083L9.37909 21.8084C9.40953 21.8483 9.44167 21.8838 9.47679 21.91C9.51272 21.9368 9.55657 21.9571 9.6077 21.9571C9.65885 21.9571 9.7027 21.9367 9.73862 21.9099C9.77368 21.8838 9.80571 21.8482 9.836 21.8084L9.60766 21.1728Z" fill="white" stroke="white" stroke-width="0.2"/>
<rect x="13.9333" y="6.42857" width="8.86667" height="1.28571" rx="0.642857" fill="#2299D4"/>
</svg>
