<svg width="32" height="23" viewBox="0 0 32 23" fill="none" xmlns="http://www.w3.org/2000/svg">
<path d="M25.7755 13.6624H29.41V19.7424C28.869 19.9755 28.564 19.8182 28.351 19.2565C27.9482 18.1978 27.1367 17.6755 25.9626 17.6502C24.7885 17.6249 24.0374 18.1922 23.6259 19.1919C23.5649 19.4147 23.4221 19.6079 23.2248 19.7347C23.0274 19.8616 22.7892 19.9133 22.5554 19.88C21.528 19.8435 20.5007 19.88 19.528 19.88C19.528 18.9617 19.6403 18.1444 19.505 17.3694C19.3219 16.4157 18.8218 15.5474 18.0821 14.8991C17.3423 14.2508 16.4042 13.8586 15.4129 13.7832C15.1239 13.7826 14.8353 13.761 14.5496 13.7186C14.4764 13.6837 14.4125 13.6329 14.3626 13.5701C14.3127 13.5073 14.2782 13.4341 14.2618 13.3563C14.2446 13.2749 14.4144 13.112 14.5496 13.0558C14.7015 13.0109 14.8602 12.9919 15.0187 12.9996C16.4575 12.9013 16.4575 12.8957 16.7971 11.5169C17.318 9.37412 17.8561 7.23419 18.3654 5.08865C18.5093 4.48486 18.8115 4.24616 19.4705 4.24616C21.0388 4.27143 22.6072 4.2602 24.1755 4.19842C24.9036 4.16752 25.2086 4.35006 25.246 5.11392C25.3726 7.73126 25.5654 10.3458 25.7352 12.9603C25.718 13.1625 25.7439 13.3675 25.7755 13.6624ZM24.3942 9.2674C24.3942 8.05141 24.3769 6.83541 24.3942 5.61661C24.3942 5.14201 24.2187 4.97912 23.7439 4.99036C22.469 5.01282 21.1971 5.02125 19.9251 5.00721C19.3266 5.00721 19.0618 5.31331 18.9467 5.82161C18.4575 8.0486 17.9626 10.27 17.5079 12.5026C17.4827 12.6342 17.4863 12.7696 17.5186 12.8998C17.5508 13.03 17.6109 13.1521 17.6949 13.258C18.3337 13.8435 19.0063 14.393 19.7093 14.9037C20.3021 15.3361 21.1194 15.2884 21.4129 14.7717C21.9194 13.8758 22.6733 13.5641 23.6575 13.6484C24.1985 13.6849 24.4144 13.4742 24.4028 12.9294C24.3741 11.7022 24.3942 10.4834 24.3942 9.2674Z" fill="#2299D4"/>
<path d="M11.5511 1.96582C11.5511 4.26301 11.5511 6.54054 11.528 8.81527C11.4902 8.92899 11.4233 9.03145 11.3337 9.113C11.2441 9.19455 11.1347 9.25252 11.0158 9.28144C8.42587 9.31234 5.86184 9.29549 3.28343 9.30672C2.81724 9.30672 2.70789 9.0961 2.70789 8.68608C2.7194 6.61356 2.7194 4.54009 2.70789 2.46569C2.70789 2.05287 2.8345 1.84506 3.29781 1.84787C5.92803 1.84787 8.55537 1.84787 11.1856 1.86472C11.3099 1.88929 11.432 1.92309 11.5511 1.96582Z" fill="#2299D4"/>
<path d="M6.47767 17.4761C5.4417 17.4761 4.40285 17.4592 3.36688 17.4761C2.87767 17.4985 2.71652 17.2991 2.7194 16.8498C2.7405 14.7904 2.74818 12.7394 2.74242 10.6968C2.74242 10.2054 2.92084 10.0004 3.43882 10.0032C5.93283 10.0181 8.43163 10.0181 10.9352 10.0032C11.4158 10.0032 11.5827 10.1857 11.577 10.6519C11.5539 11.9999 11.7295 13.3731 11.5136 14.6902C11.364 15.6085 10.7194 16.4567 10.2417 17.3104C10.1698 17.4396 9.81292 17.462 9.58846 17.4648C8.54961 17.4789 7.51364 17.4648 6.47767 17.4648V17.4761Z" fill="#2299D4"/>
<path d="M18.9064 18.1894C18.9242 18.9507 18.7087 19.6998 18.2875 20.3408C17.8664 20.9818 17.2587 21.4856 16.5424 21.7876C15.8261 22.0896 15.0337 22.176 14.2668 22.0359C13.4998 21.8958 12.7932 21.5354 12.2373 21.001C11.6815 20.4666 11.3017 19.7825 11.1467 19.0362C10.9917 18.2899 11.0685 17.5154 11.3672 16.812C11.666 16.1085 12.1731 15.5081 12.8236 15.0876C13.4741 14.667 14.2384 14.4456 15.0187 14.4515C16.0403 14.45 17.0214 14.8415 17.7492 15.5412C18.477 16.2409 18.8928 17.1924 18.9064 18.1894ZM14.9784 19.7339C15.1886 19.7451 15.399 19.7147 15.5969 19.6446C15.7948 19.5744 15.9761 19.466 16.13 19.3258C16.2839 19.1855 16.4071 19.0164 16.4923 18.8285C16.5775 18.6406 16.623 18.4378 16.6259 18.2324C16.6288 18.0269 16.5891 17.823 16.5093 17.6329C16.4294 17.4428 16.311 17.2704 16.1612 17.1261C16.0113 16.9817 15.8331 16.8684 15.6373 16.793C15.4415 16.7175 15.232 16.6814 15.0216 16.6869C14.8107 16.676 14.5998 16.706 14.401 16.7753C14.2021 16.8445 14.0194 16.9516 13.8633 17.0903C13.7072 17.2291 13.5809 17.3967 13.4918 17.5834C13.4026 17.7701 13.3523 17.9723 13.3439 18.1782C13.3544 18.5944 13.5312 18.99 13.8366 19.2807C14.142 19.5714 14.5518 19.7341 14.9784 19.7339Z" fill="#2299D4"/>
<path d="M12.5179 14.2971V12.3874C12.5179 9.01746 12.5179 5.6475 12.5179 2.27754C12.5179 1.91807 12.3741 1.44628 13.0158 1.40415C13.4992 1.37607 13.7611 1.4856 13.7496 2.03321C13.7208 3.27729 13.7496 4.52418 13.7496 5.76826C13.7496 8.15531 13.7496 10.5424 13.7496 12.9294C13.741 13.6905 13.4187 14.1454 12.5179 14.2971Z" fill="#2299D4"/>
<path d="M1.53956 18.1978H10.2331C10.4259 19.1386 10.3971 19.1807 9.482 19.1807C7.06761 19.1807 4.65035 19.1554 2.23596 19.1807C1.45322 19.1976 1.30646 18.8971 1.53956 18.1978Z" fill="#2299D4"/>
<path d="M25.9684 18.0461C25.4034 18.0451 24.8603 18.2589 24.4541 18.6422C24.048 19.0254 23.8108 19.548 23.7928 20.099C23.8219 20.6483 24.0636 21.1664 24.4691 21.5485C24.8745 21.9306 25.4135 22.1483 25.977 22.1575C26.541 22.1436 27.0772 21.916 27.4721 21.5228C27.8669 21.1296 28.0893 20.6018 28.0921 20.0513C28.0764 19.5127 27.8454 19.0014 27.4486 18.6268C27.0517 18.2521 26.5205 18.0437 25.9684 18.0461ZM25.9425 21.037C25.753 21.037 25.5677 20.9821 25.4101 20.8794C25.2525 20.7766 25.1297 20.6306 25.0572 20.4597C24.9846 20.2888 24.9657 20.1008 25.0026 19.9194C25.0396 19.738 25.1309 19.5713 25.2649 19.4406C25.3989 19.3098 25.5697 19.2207 25.7555 19.1846C25.9414 19.1485 26.1341 19.1671 26.3092 19.2378C26.4843 19.3086 26.634 19.4285 26.7393 19.5823C26.8446 19.7361 26.9008 19.9169 26.9008 20.1018C26.9008 20.3498 26.7998 20.5877 26.6201 20.7631C26.4404 20.9385 26.1966 21.037 25.9425 21.037Z" fill="#2299D4"/>
</svg>
