<svg width="13" height="17" viewBox="0 0 13 17" fill="none" xmlns="http://www.w3.org/2000/svg">
<path d="M6.49365 13.9422C6.23503 13.6356 5.98366 13.3417 5.73891 13.0443C4.68031 11.7521 3.67826 10.4181 2.80723 8.98425C2.40211 8.31906 2.04625 7.62357 1.74266 6.90365C1.18423 5.57645 1.27108 4.26853 1.87559 2.99936C2.67194 1.327 3.99023 0.330505 5.78458 0.0563042C8.50117 -0.359815 11.065 1.56616 11.5459 4.33379C11.7068 5.25823 11.5722 6.12967 11.2161 6.98381C10.8038 7.97111 10.2695 8.88657 9.68524 9.77312C8.73504 11.2142 7.67751 12.5692 6.55468 13.8717L6.49365 13.9422ZM9.06173 4.81649C9.06173 4.11802 8.79139 3.44815 8.31018 2.95425C7.82898 2.46036 7.17632 2.18289 6.49579 2.18289C5.81526 2.18289 5.1626 2.46036 4.68139 2.95425C4.20018 3.44815 3.92984 4.11802 3.92984 4.81649C3.92942 6.26765 5.08041 7.4503 6.49621 7.4503C7.17659 7.44978 7.82894 7.1721 8.30997 6.67826C8.79101 6.18442 9.06139 5.5148 9.06173 4.81649Z" fill="#2299D4"/>
<path d="M4.50007 12.1468C4.1021 12.2175 3.70841 12.2782 3.31877 12.3586C2.69377 12.4882 2.07965 12.6623 1.51503 12.9747C1.29547 13.0938 1.09191 13.2417 0.909449 13.4146C0.568034 13.7456 0.57913 14.1142 0.91329 14.4556C1.17533 14.7237 1.50074 14.8884 1.83788 15.0296C2.49937 15.3071 3.19373 15.4622 3.89704 15.5752C5.06084 15.7624 6.23232 15.8069 7.40721 15.7473C8.58594 15.6875 9.75059 15.5325 10.8741 15.1383C11.2046 15.0224 11.5266 14.8838 11.813 14.6751C11.9442 14.5811 12.0635 14.4707 12.1682 14.3465C12.387 14.0813 12.394 13.7837 12.1731 13.5206C12.0381 13.3613 11.8816 13.2226 11.7084 13.1087C11.1997 12.7745 10.6304 12.5831 10.0468 12.4471C9.53465 12.327 9.01591 12.2386 8.50294 12.1367C8.54967 12.0053 8.59064 11.979 8.73147 11.9904C9.48322 12.0513 10.2345 12.1218 10.9669 12.3146C11.3142 12.4051 11.6539 12.5239 11.9828 12.6698C12.1997 12.7704 12.3993 12.9063 12.5739 13.0723C13.0433 13.5104 13.1261 14.1236 12.8176 14.6959C12.6599 14.9882 12.4371 15.2215 12.1821 15.4258C11.6134 15.8794 10.9658 16.1781 10.2885 16.4081C8.86334 16.891 7.39654 17.0511 5.90243 16.9843C4.7525 16.933 3.62711 16.741 2.53992 16.3439C1.86946 16.1012 1.23102 15.7927 0.684543 15.3128C0.452594 15.1089 0.256067 14.8748 0.127183 14.5879C-0.110527 14.0581 -0.0127967 13.509 0.391139 13.0986C0.703107 12.7821 1.09168 12.605 1.49924 12.4657C2.07175 12.2701 2.66389 12.1678 3.26073 12.0934C3.5808 12.0537 3.90558 12.0369 4.22586 11.9922C4.36755 11.9738 4.44821 12.0174 4.50007 12.1468Z" fill="#2299D4"/>
</svg>
