<svg width="55" height="55" viewBox="0 0 55 55" fill="none" xmlns="http://www.w3.org/2000/svg">
<path d="M0 30.25V24.475C0.100102 24.2258 0.181005 23.9693 0.242 23.7078C1.9745 12.2485 10.0705 3.40175 21.2933 0.72325C22.4373 0.44825 23.5978 0.23925 24.75 0H30.25C30.5475 0.0997667 30.8505 0.182402 31.1575 0.2475C42.5068 2.14775 50.05 8.57725 53.7625 19.4288C54.351 21.142 54.5875 22.9735 55 24.75V30.25C54.8983 30.6928 54.78 31.1328 54.7003 31.5783C52.7423 42.4353 46.585 49.7576 36.2285 53.5453C34.3035 54.2438 32.2465 54.527 30.25 55H24.75C24.4022 54.8947 24.0487 54.8093 23.6913 54.7443C18.3684 54.0117 13.3791 51.728 9.34591 48.1779C5.31271 44.6279 2.41419 39.9688 1.012 34.782C0.6105 33.2888 0.3355 31.7625 0 30.25ZM46.3513 42.1575C52.7065 34.9525 54.7113 19.8825 43.7305 9.8065C33.4538 0.365749 17.6633 1.573 8.8 12.408C1.82325 20.933 1.76 36.9903 8.712 42.0915L9.10525 41.3682C11.9378 36.1762 16.3075 33.2173 22.1953 32.8735C26.0728 32.6508 29.975 32.8735 33.8663 32.9533C34.7343 33.0065 35.5906 33.1815 36.41 33.473C40.9255 34.925 44.1265 37.8978 46.3513 42.1575Z" fill="url(#paint0_linear_6_142)"/>
<path d="M27.5 10.3015C30.2482 10.3114 32.8799 11.4125 34.8162 13.3627C36.7525 15.3129 37.8347 17.9525 37.8249 20.7006C37.815 23.4488 36.7139 26.0805 34.7637 28.0168C32.8135 29.9531 30.1739 31.0354 27.4258 31.0255C21.769 30.998 17.0748 26.3038 17.0968 20.702C17.1098 17.9472 18.2101 15.3089 20.1584 13.3612C22.1066 11.4134 24.7452 10.3138 27.5 10.3015Z" fill="url(#paint1_linear_6_142)"/>
<defs>
<linearGradient id="paint0_linear_6_142" x1="27.5" y1="0" x2="27.5" y2="55" gradientUnits="userSpaceOnUse">
<stop stop-color="#2299D5"/>
<stop offset="1" stop-color="#04608E"/>
</linearGradient>
<linearGradient id="paint1_linear_6_142" x1="27.4608" y1="10.3015" x2="27.4608" y2="31.0256" gradientUnits="userSpaceOnUse">
<stop stop-color="#2299D5"/>
<stop offset="1" stop-color="#04608E"/>
</linearGradient>
</defs>
</svg>
