<svg width="131" height="27" viewBox="0 0 131 27" fill="none" xmlns="http://www.w3.org/2000/svg">
<path d="M55.5535 3.07288H64.1669V5.94371H58.7114V11.2552H63.0468V14.126H58.7114V20.2988H64.1669V23.1696H55.5535V3.07288Z" fill="#F05323"/>
<path d="M65.9751 3.07288H70.655C72.2821 3.07288 73.4684 3.45094 74.2148 4.20707C74.9613 4.96321 75.3349 6.12656 75.3349 7.69537V8.93027C75.3349 11.0167 74.6459 12.3373 73.2679 12.8929V12.9503C74.0329 13.18 74.5744 13.649 74.8897 14.3575C75.2059 15.0659 75.3632 16.0128 75.3632 17.2V20.7316C75.3632 21.3058 75.3817 21.7704 75.4206 22.1237C75.4586 22.478 75.554 22.8269 75.7077 23.1714H72.4923C72.3775 22.8463 72.3007 22.5398 72.2627 22.2527C72.2238 21.9656 72.2053 21.4489 72.2053 20.7025V17.0278C72.2053 16.1091 72.0569 15.4678 71.7601 15.1039C71.4633 14.7408 70.9509 14.558 70.2239 14.558H69.133V23.1714H65.9751V3.07288ZM70.2822 11.6863C70.9138 11.6863 71.3873 11.5237 71.7035 11.1978C72.0198 10.8727 72.177 10.3268 72.177 9.56097V8.01072C72.177 7.28373 72.048 6.75727 71.7892 6.43131C71.5313 6.10625 71.1241 5.94283 70.5693 5.94283H69.1339V11.6854H70.2822V11.6863Z" fill="#F05323"/>
<path d="M78.2234 8.47626H80.445V23.1493H78.2234V8.47626Z" fill="url(#paint0_linear_66_3)"/>
<path d="M82.8767 8.47626H85.3289L88.1582 18.3281V8.47626H90.3383V23.1493H87.9904L85.0559 13.7586V23.1493H82.8759V8.47626H82.8767Z" fill="url(#paint1_linear_66_3)"/>
<path d="M93.9856 22.8976C93.4406 22.5902 93.0174 22.1635 92.7171 21.6194C92.4168 21.0744 92.2666 20.4525 92.2666 19.7538V19.23L94.4043 18.9994V19.5444C94.4043 20.0753 94.5297 20.4949 94.7815 20.8023C95.0332 21.1097 95.3821 21.2634 95.8291 21.2634C96.2619 21.2634 96.6082 21.138 96.867 20.8862C97.1258 20.6345 97.2548 20.2926 97.2548 19.8589C97.2548 19.3837 97.1188 18.9296 96.8458 18.4968C96.5737 18.064 96.0314 17.4633 95.2214 16.6939C94.1313 15.6604 93.3876 14.8009 92.9892 14.1155C92.5908 13.4309 92.392 12.6836 92.392 11.8727C92.392 10.7694 92.6924 9.89224 93.293 9.24211C93.8937 8.59197 94.7187 8.26779 95.7664 8.26779C96.814 8.26779 97.639 8.59639 98.2397 9.25271C98.8404 9.90991 99.1407 10.7897 99.1407 11.8939V12.2702L97.003 12.5007V12.0811C97.003 11.522 96.8979 11.0962 96.6886 10.8021C96.4792 10.5088 96.178 10.3622 95.7876 10.3622C95.3963 10.3622 95.0959 10.4814 94.8866 10.7182C94.6772 10.9558 94.5721 11.3047 94.5721 11.7658C94.5721 12.2269 94.7117 12.6703 94.9917 13.097C95.2708 13.5236 95.8088 14.1349 96.6055 14.9308C97.6956 16.0208 98.4393 16.898 98.8377 17.5614C99.2361 18.2256 99.4349 18.9553 99.4349 19.752C99.4349 20.4507 99.2847 21.0726 98.9844 21.6176C98.684 22.1626 98.2609 22.5893 97.7159 22.8958C97.1709 23.2023 96.549 23.3569 95.8503 23.3569C95.1525 23.3587 94.5306 23.2041 93.9856 22.8976Z" fill="url(#paint2_linear_66_3)"/>
<path d="M101.322 8.47626H103.543V23.1493H101.322V8.47626Z" fill="url(#paint3_linear_66_3)"/>
<path d="M110.691 13.0457V11.8091C110.691 11.3479 110.572 10.9911 110.335 10.7402C110.098 10.4885 109.769 10.363 109.35 10.363C108.931 10.363 108.603 10.4885 108.365 10.7402C108.128 10.992 108.009 11.3479 108.009 11.8091V19.8165C108.009 20.2776 108.128 20.6336 108.365 20.8853C108.603 21.1371 108.932 21.2625 109.35 21.2625C109.77 21.2625 110.098 21.1371 110.335 20.8853C110.573 20.6336 110.691 20.2776 110.691 19.8165V17.2168H109.349V15.1207H112.913V19.8156C112.913 20.8774 112.584 21.7333 111.928 22.3834C111.271 23.0336 110.411 23.3578 109.349 23.3578C108.288 23.3578 107.428 23.0327 106.771 22.3834C106.114 21.7333 105.786 20.8782 105.786 19.8156V11.8082C105.786 10.7464 106.115 9.89045 106.771 9.24031C107.427 8.59018 108.287 8.26599 109.349 8.26599C110.411 8.26599 111.271 8.59106 111.928 9.24031C112.584 9.89045 112.913 10.7464 112.913 11.8082V13.0448H110.691V13.0457Z" fill="url(#paint4_linear_66_3)"/>
<path d="M115.072 23.1484V8.47626H117.293V14.6596H119.934V8.47626H122.156V23.1493H119.934V16.7566H117.293V23.1493H115.072V23.1484Z" fill="url(#paint5_linear_66_3)"/>
<path d="M123.875 8.47626H130.959V10.5724H128.527V23.1493H126.306V10.5724H123.874V8.47626H123.875Z" fill="url(#paint6_linear_66_3)"/>
<path d="M3.35657 22.2795L11.8737 12.675L8.79791 13.4877L6.70617 14.5856L3.35657 22.2795Z" fill="#D33C18"/>
<path d="M0 17.5253L3.35667 22.2794L9.00648 12.6908L0 17.5253Z" fill="#F05323"/>
<path d="M49.6319 6.55257L48.6072 11.0355L47.5826 15.5184L46.3742 14.3966L35.9226 26.7756C35.8024 26.9179 35.6249 27 35.4385 27H13.0928C12.743 27 12.4594 26.7165 12.4594 26.3667V16.7171C12.4594 16.5705 12.5107 16.4283 12.6034 16.3152L18.6887 8.89076C18.9431 8.58159 19.3229 8.40316 19.724 8.40581L26.4991 8.45616C26.833 8.45881 27.0168 8.84659 26.8065 9.1063L24.0965 12.4638C24.002 12.5804 24.0832 12.7553 24.2343 12.7571L28.8506 12.826C29.0184 12.8278 29.1792 12.7562 29.2887 12.629L31.6834 9.85448C31.7744 9.74936 31.823 9.61421 31.8212 9.47553L31.77 6.11886C31.7665 5.90597 31.5933 5.73461 31.3796 5.73461L18.5898 5.73549C18.2011 5.73549 17.8319 5.90509 17.5792 6.20012C17.5792 6.20012 11.1918 13.5168 10.6733 14.1042C6.89973 18.384 1.88857 17.6367 0 17.4794C0.2173 17.2277 0.350682 17.0528 0.506149 16.8982L10.8473 5.24877C11.0646 5.00409 11.1848 4.68874 11.1848 4.3619V1.62622C11.1848 0.727865 12.001 0 12.8984 0H35.9296C36.8297 0 37.5576 0.730516 37.5558 1.62975L37.5329 11.2881C37.532 11.607 37.4163 11.9153 37.2078 12.1573L32.0589 18.1066C31.8053 18.399 31.4379 18.5668 31.051 18.5668H18.5642C18.361 18.5668 18.1967 18.7338 18.2002 18.9369L18.2303 20.7778C18.2338 21.0304 18.4396 21.2327 18.6914 21.2327H32.6949C32.8795 21.2327 33.0544 21.1523 33.1745 21.0128L42.0379 10.7387C42.098 10.6689 42.1642 10.6071 42.2349 10.5532L40.8427 9.26088L45.2373 7.90673L49.6319 6.55257Z" fill="url(#paint7_linear_66_3)"/>
<path d="M43.0175 10.5285L35.8307 26.8878L46.3998 13.4585L47.5826 15.5184L49.7202 6.46423L40.8427 9.26087L43.0175 10.5285Z" fill="#F05323"/>
<defs>
<linearGradient id="paint0_linear_66_3" x1="79.3346" y1="6.20149" x2="79.3346" y2="20.2747" gradientUnits="userSpaceOnUse">
<stop stop-color="#14648C"/>
<stop offset="1" stop-color="#1E3954"/>
</linearGradient>
<linearGradient id="paint1_linear_66_3" x1="86.6077" y1="6.20149" x2="86.6077" y2="20.2747" gradientUnits="userSpaceOnUse">
<stop stop-color="#14648C"/>
<stop offset="1" stop-color="#1E3954"/>
</linearGradient>
<linearGradient id="paint2_linear_66_3" x1="95.8511" y1="6.20149" x2="95.8511" y2="20.2747" gradientUnits="userSpaceOnUse">
<stop stop-color="#14648C"/>
<stop offset="1" stop-color="#1E3954"/>
</linearGradient>
<linearGradient id="paint3_linear_66_3" x1="102.433" y1="6.20149" x2="102.433" y2="20.2747" gradientUnits="userSpaceOnUse">
<stop stop-color="#14648C"/>
<stop offset="1" stop-color="#1E3954"/>
</linearGradient>
<linearGradient id="paint4_linear_66_3" x1="109.349" y1="6.20145" x2="109.349" y2="20.2747" gradientUnits="userSpaceOnUse">
<stop stop-color="#14648C"/>
<stop offset="1" stop-color="#1E3954"/>
</linearGradient>
<linearGradient id="paint5_linear_66_3" x1="118.614" y1="6.20149" x2="118.614" y2="20.2747" gradientUnits="userSpaceOnUse">
<stop stop-color="#14648C"/>
<stop offset="1" stop-color="#1E3954"/>
</linearGradient>
<linearGradient id="paint6_linear_66_3" x1="127.417" y1="6.20149" x2="127.417" y2="20.2747" gradientUnits="userSpaceOnUse">
<stop stop-color="#14648C"/>
<stop offset="1" stop-color="#1E3954"/>
</linearGradient>
<linearGradient id="paint7_linear_66_3" x1="25.6194" y1="26.1589" x2="24.9428" y2="14.2508" gradientUnits="userSpaceOnUse">
<stop stop-color="#14648C"/>
<stop offset="1" stop-color="#1E3954"/>
</linearGradient>
</defs>
</svg>
