<svg width="21" height="20" viewBox="0 0 21 20" fill="none" xmlns="http://www.w3.org/2000/svg">
<path d="M5.84434 1.62052L4.33863 0.154107C3.05223 1.10317 1.9965 2.31677 1.24659 3.70851C0.496685 5.10024 0.071053 6.63587 0 8.20607H2.1058C2.18029 6.90521 2.55513 5.63748 3.20242 4.49726C3.84971 3.35705 4.75276 2.37373 5.84434 1.62052ZM18.8926 8.205H21C20.9244 6.63576 20.4967 5.10168 19.7472 3.71061C18.9976 2.31954 17.9444 1.10524 16.6614 0.153041L15.1661 1.61946C16.2529 2.37624 17.1518 3.36047 17.797 4.49988C18.4421 5.63929 18.817 6.90495 18.8942 8.20394L18.8926 8.205ZM16.818 8.71798C16.818 5.57185 15.091 2.93337 12.0791 2.23589V1.5384C12.0791 1.13039 11.9127 0.739095 11.6164 0.450588C11.3202 0.162081 10.9184 0 10.4995 0C10.0805 0 9.67873 0.162081 9.38249 0.450588C9.08625 0.739095 8.91983 1.13039 8.91983 1.5384V2.23589C5.89746 2.93337 4.18095 5.55905 4.18095 8.71798V13.8462L2.07405 15.8976V16.923H18.9238V15.8976L16.8174 13.8462L16.818 8.71798ZM10.4989 19.9998C10.6404 20.0019 10.7817 19.9881 10.92 19.9587C11.2537 19.8896 11.5655 19.7437 11.8294 19.5331C12.0933 19.3225 12.3015 19.0534 12.4366 18.7483C12.5435 18.4946 12.5973 18.2226 12.5949 17.9484H8.38215C8.38619 18.493 8.61083 19.014 9.00722 19.3982C9.40361 19.7823 9.9397 19.9985 10.4989 19.9998Z" fill="white"/>
</svg>
