<svg width="16" height="15" viewBox="0 0 16 15" fill="none" xmlns="http://www.w3.org/2000/svg">
<path d="M1.23161 12.9929C1.17267 12.9927 1.11613 12.9695 1.07404 12.9282C1.03195 12.8869 1.00762 12.8309 1.00623 12.772C1.00101 12.6276 1.00338 12.4831 1.01333 12.3389C1.03374 12.1189 1.26267 11.9326 1.49692 11.9219C1.58565 11.9219 1.67882 11.9219 1.77376 11.9219C1.80343 11.922 1.83283 11.9163 1.86028 11.905C1.88773 11.8937 1.91268 11.8772 1.9337 11.8562C1.95472 11.8353 1.9714 11.8104 1.98278 11.783C1.99416 11.7556 2.00002 11.7262 2.00002 11.6965V5.60691C2.00002 5.54729 2.02365 5.4901 2.06572 5.44786C2.10779 5.40562 2.16489 5.38177 2.22451 5.38153H3.85539C3.88506 5.38142 3.91447 5.38716 3.94191 5.39843C3.96936 5.40971 3.99431 5.42629 4.01533 5.44723C4.03635 5.46817 4.05303 5.49305 4.06442 5.52046C4.0758 5.54786 4.08166 5.57724 4.08166 5.60691V11.6814C4.08166 11.7411 4.10528 11.7983 4.14735 11.8405C4.18943 11.8827 4.24653 11.9066 4.30615 11.9068H4.8616C4.92122 11.9066 4.97832 11.8827 5.0204 11.8405C5.06247 11.7983 5.08609 11.7411 5.08609 11.6814V5.61046C5.08633 5.55084 5.11018 5.49374 5.15242 5.45167C5.19466 5.40959 5.25185 5.38597 5.31147 5.38597H6.88467C6.94429 5.38597 7.00148 5.40959 7.04373 5.45167C7.08597 5.49374 7.10982 5.55084 7.11005 5.61046V11.6823C7.11005 11.7419 7.1337 11.799 7.1758 11.8411C7.2179 11.8832 7.275 11.9068 7.33454 11.9068H7.8971C7.95672 11.9068 8.01391 11.8832 8.05615 11.8411C8.09839 11.7991 8.12224 11.742 8.12247 11.6823V5.60691C8.12247 5.54729 8.1461 5.4901 8.18817 5.44786C8.23025 5.40562 8.28734 5.38177 8.34696 5.38153H9.91573C9.94533 5.38153 9.97463 5.38736 10.002 5.39869C10.0293 5.41001 10.0542 5.42662 10.0751 5.44754C10.096 5.46847 10.1126 5.49332 10.124 5.52066C10.1353 5.54801 10.1411 5.57731 10.1411 5.60691V11.6806C10.1411 11.7402 10.1647 11.7974 10.2068 11.8396C10.2489 11.8819 10.306 11.9057 10.3656 11.9059H10.9228C10.9826 11.9059 11.0399 11.8822 11.0822 11.8399C11.1245 11.7977 11.1482 11.7403 11.1482 11.6806V5.61046C11.1482 5.55084 11.1718 5.49365 11.2139 5.45141C11.256 5.40917 11.3131 5.38532 11.3727 5.38508H12.9424C13.0021 5.38508 13.0594 5.40883 13.1017 5.45109C13.144 5.49336 13.1677 5.55069 13.1677 5.61046V11.6948C13.1677 11.7243 13.1736 11.7536 13.1849 11.7809C13.1962 11.8082 13.2129 11.833 13.2338 11.8538C13.2547 11.8747 13.2796 11.8912 13.3069 11.9024C13.3343 11.9136 13.3635 11.9194 13.3931 11.9192H13.402C13.5051 11.9191 13.6072 11.9394 13.7024 11.9789C13.7977 12.0184 13.8841 12.0764 13.9569 12.1495C14.0296 12.2225 14.0872 12.3093 14.1263 12.4047C14.1654 12.5001 14.1852 12.6023 14.1846 12.7054C14.1846 12.7267 14.1846 12.748 14.1846 12.7693C14.1841 12.8286 14.1603 12.8853 14.1183 12.9272C14.0762 12.9691 14.0194 12.9927 13.9601 12.9929H1.23161Z" fill="#2299D4"/>
<path d="M0.75244 4.28393H0.426797C0.314145 4.28417 0.205987 4.23977 0.125998 4.16044C0.0460086 4.08112 0.000703829 3.97333 0 3.86068C0 3.66015 0 3.46139 0.00709849 3.26264C0.00709849 3.21916 0.0842946 3.16148 0.138421 3.13841C1.26235 2.64862 2.38805 2.16119 3.51553 1.67612C4.77137 1.13309 6.0278 0.591236 7.28483 0.0505674C7.46964 -0.0168558 7.67233 -0.0168558 7.85715 0.0505674C10.2375 1.07334 12.617 2.09789 14.9956 3.12422C15.0472 3.13727 15.0922 3.16896 15.1218 3.2132C15.1515 3.25743 15.1637 3.31107 15.1562 3.36379C15.1508 3.52262 15.15 3.68145 15.1508 3.84294C15.1511 3.89902 15.1402 3.95459 15.1189 4.00647C15.0976 4.05835 15.0663 4.10551 15.0267 4.14525C14.9872 4.18499 14.9401 4.21652 14.8883 4.23803C14.8365 4.25955 14.781 4.27062 14.7249 4.27062H14.4587C14.3784 4.27306 14.3001 4.29729 14.2325 4.34074C14.1648 4.38419 14.1102 4.44522 14.0745 4.5173C13.9556 4.73912 13.7587 4.81987 13.5138 4.81898C12.3744 4.81898 11.2348 4.81898 10.0949 4.81898H1.81633C1.40018 4.81898 1.25998 4.78083 1.13044 4.52173C1.09562 4.45099 1.04184 4.3913 0.975104 4.34932C0.908366 4.30733 0.831283 4.2847 0.75244 4.28393Z" fill="#2299D4"/>
<path d="M0.574091 14.9991C0.422996 14.9998 0.27777 14.9407 0.170183 14.8346C0.0625957 14.7285 0.00140606 14.5841 0 14.433C0 14.2325 0 14.0328 0.00976043 13.8332C0.0221828 13.5732 0.275954 13.3833 0.562556 13.3824C1.27241 13.3824 1.97427 13.3824 2.67968 13.3824H14.5697C14.9246 13.3824 15.15 13.6069 15.1544 13.9592C15.1544 14.1154 15.1544 14.2715 15.1544 14.4286C15.1542 14.5801 15.0939 14.7253 14.9868 14.8324C14.8797 14.9395 14.7345 14.9998 14.583 15L0.574091 14.9991Z" fill="#2299D4"/>
</svg>
