<svg width="12" height="17" viewBox="0 0 12 17" fill="none" xmlns="http://www.w3.org/2000/svg">
<path d="M10.5 5.66667H9.75V4.04762C9.75 1.81333 8.07 0 6 0C3.93 0 2.25 1.81333 2.25 4.04762V5.66667H1.5C0.675 5.66667 0 6.39524 0 7.28571V15.381C0 16.2714 0.675 17 1.5 17H10.5C11.325 17 12 16.2714 12 15.381V7.28571C12 6.39524 11.325 5.66667 10.5 5.66667ZM6 12.9524C5.175 12.9524 4.5 12.2238 4.5 11.3333C4.5 10.4429 5.175 9.71429 6 9.71429C6.825 9.71429 7.5 10.4429 7.5 11.3333C7.5 12.2238 6.825 12.9524 6 12.9524ZM8.325 5.66667H3.675V4.04762C3.675 2.66333 4.7175 1.5381 6 1.5381C7.2825 1.5381 8.325 2.66333 8.325 4.04762V5.66667Z" fill="#2299D5"/>
</svg>
