<svg width="39" height="30" viewBox="0 0 39 30" fill="none" xmlns="http://www.w3.org/2000/svg">
<path d="M5.94382 7.59262C6.40825 7.99463 6.85706 8.37566 7.29807 8.76717C8.10724 9.48495 8.9125 10.2074 9.71386 10.9345C9.76566 10.9992 9.84372 11.0432 9.93129 11.0569C10.0189 11.0706 10.1089 11.053 10.1822 11.0079C11.4272 10.4766 12.6799 9.9592 13.9678 9.42786C14.1708 9.91267 14.5633 10.3151 15.0723 10.5605L11.1774 12.2349L12.6916 12.983C14.8017 14.0247 16.9118 15.0664 19.0219 16.1081C19.1546 16.1745 19.2678 16.2445 19.4473 16.1536C22.0894 14.8427 24.7355 13.5388 27.4206 12.2139L24.6457 10.9415L25.9258 10.0186L27.4089 10.6898C27.963 10.9415 28.5289 11.1757 29.0636 11.4554C29.5983 11.735 30.1369 11.6686 30.6793 11.707C32.2131 11.8154 33.7469 11.8923 35.2807 11.9832C35.4474 11.9895 35.6074 12.0435 35.7373 12.1372C35.8673 12.231 35.9603 12.3595 36.0027 12.5041C36.0407 12.6571 36.0203 12.8172 35.9445 12.9586C35.8688 13.1 35.7422 13.2144 35.5851 13.2836C33.7638 14.2577 31.9334 15.2295 30.0939 16.199C29.9911 16.2405 29.9052 16.3095 29.8479 16.3965C29.7906 16.4835 29.7647 16.5842 29.7739 16.6849C29.7739 18.9781 29.7739 21.2747 29.7739 23.5679C29.7965 23.7834 29.7441 23.9999 29.6239 24.1876C29.5038 24.3754 29.3217 24.5252 29.1026 24.6166C25.9531 26.1512 22.8153 27.7103 19.6775 29.2624C19.5438 29.3345 19.3907 29.3726 19.2346 29.3726C19.0785 29.3726 18.9253 29.3345 18.7916 29.2624L9.54605 24.6551C9.26895 24.5187 8.94112 24.4279 8.83185 24.1202C8.79114 24.0073 8.77007 23.8894 8.7694 23.7707C8.7694 19.8974 8.7694 16.0242 8.7694 12.151C8.75517 12.0361 8.69567 11.9295 8.60159 11.8504C7.13676 10.522 5.66933 9.20297 4.1993 7.89325C4.06218 7.80112 3.96425 7.66985 3.92168 7.52113C3.8791 7.3724 3.89443 7.21512 3.96514 7.07526C4.06322 6.90788 4.2213 6.7749 4.41395 6.69773C7.74689 5.41597 11.0889 4.14121 14.4401 2.87344C14.5971 2.79883 14.7778 2.77445 14.9524 2.80432C15.1269 2.8342 15.2849 2.91654 15.4001 3.03774C15.7436 3.35585 16.2236 3.62152 16.407 4.00255C16.5905 4.38358 16.4773 4.87298 16.489 5.31343C16.489 5.49521 16.489 5.68048 16.489 5.9077C16.4213 5.86537 16.3562 5.81986 16.2939 5.77137C15.7943 5.31693 15.2909 4.86598 14.7991 4.40805C14.7605 4.35965 14.7033 4.32574 14.6384 4.31284C14.5736 4.29993 14.5057 4.30894 14.4479 4.33814L6.10774 7.50872C6.07261 7.52271 6.04139 7.54368 5.94382 7.59262ZM10.2759 13.35V13.6611C10.2759 16.8422 10.2759 20.0256 10.2759 23.2114C10.2663 23.2945 10.2865 23.3783 10.3335 23.4505C10.3805 23.5227 10.4519 23.5798 10.5373 23.6134C12.879 24.7646 15.2284 25.9217 17.5857 27.0846C17.8862 27.2349 18.1906 27.3782 18.5223 27.539C18.5223 27.4551 18.5223 27.4062 18.5223 27.3537C18.5223 24.1028 18.5223 20.8494 18.5223 17.5938C18.5269 17.5311 18.5089 17.4687 18.471 17.4159C18.433 17.363 18.3772 17.3225 18.3116 17.3001L10.5061 13.4549C10.4632 13.4234 10.3851 13.3955 10.2759 13.35ZM32.7283 13.2382V13.1892C31.7877 13.1368 30.8472 13.0948 29.9105 13.0179C29.5956 12.9839 29.2768 13.0415 29.0012 13.1822C27.0264 14.2065 25.0399 15.2167 23.0612 16.2305C22.5812 16.4717 22.105 16.7199 21.6016 16.9785C21.6649 17.0055 21.7301 17.0289 21.7967 17.0485C22.6085 17.2128 23.4281 17.3631 24.2359 17.5379C24.3419 17.5616 24.4522 17.5651 24.5597 17.5483C24.6673 17.5314 24.7697 17.4945 24.8604 17.44C26.5737 16.5206 28.2987 15.6082 30.0198 14.6924L32.7283 13.2382Z" fill="#2299D4"/>
<path d="M17.5935 8.55395V3.84525C17.5935 3.39781 17.7848 3.22302 18.2804 3.22302C19.5059 3.22302 20.7326 3.22302 21.9607 3.22302C22.4134 3.22302 22.6124 3.4048 22.6124 3.82079C22.6124 5.29597 22.6124 6.76765 22.6124 8.24283V8.55744H22.9481C23.4827 8.55744 24.0174 8.55744 24.556 8.55744C24.6829 8.54493 24.8107 8.57321 24.9165 8.63724C25.0223 8.70126 25.0992 8.79687 25.1336 8.90701C25.1722 9.01135 25.1705 9.1243 25.1288 9.22767C25.087 9.33104 25.0076 9.4188 24.9033 9.47681L22.7451 10.9939L20.6103 12.4971C20.1888 12.7977 20.0366 12.7977 19.6151 12.4971L15.3456 9.49429C15.2302 9.43562 15.141 9.34295 15.0934 9.23205C15.0457 9.12114 15.0424 8.99887 15.0841 8.88604C15.1237 8.7709 15.2081 8.6723 15.3219 8.60816C15.4358 8.54401 15.5716 8.51858 15.7046 8.53647C16.2237 8.53647 16.7388 8.53647 17.2657 8.53647L17.5935 8.55395Z" fill="#2299D4"/>
</svg>
