<svg width="21" height="23" viewBox="0 0 21 23" fill="none" xmlns="http://www.w3.org/2000/svg">
<path d="M14.2109 12.2292C14.2253 12.4861 14.2433 12.6609 14.2433 12.8322C14.2433 15.0512 14.2433 17.2703 14.2433 19.4893C14.2433 20.2442 14.5002 20.4891 15.2531 20.4975C15.5127 20.5108 15.7728 20.5108 16.0324 20.4975C16.4274 20.4589 16.6676 20.5711 16.8849 20.951C17.3844 21.8229 18.4207 22.1835 19.3825 21.9158C19.8448 21.7785 20.251 21.4959 20.5415 21.1095C20.832 20.7231 20.9914 20.2532 20.9963 19.7691C21.0019 19.2847 20.8499 18.8118 20.5634 18.4221C20.2768 18.0325 19.8715 17.7474 19.4089 17.6104C18.4483 17.3149 17.4133 17.6465 16.9041 18.5269C16.6196 19.019 16.2942 19.0781 15.8127 18.9466V12.2811C16.3386 12.1605 16.6472 12.2702 16.9246 12.7538C17.4193 13.6209 18.4855 13.9429 19.4401 13.6426C19.8948 13.4968 20.291 13.2088 20.5712 12.8207C20.8513 12.4326 21.0006 11.9648 20.9972 11.4855C20.9939 11.0062 20.8381 10.5405 20.5525 10.1564C20.267 9.77229 19.8667 9.48992 19.4101 9.35049C18.4495 9.06467 17.3977 9.40355 16.9029 10.2719C16.61 10.7868 16.2846 10.8544 15.8067 10.694V4.04894C16.5271 3.97175 16.5271 3.97175 16.9029 4.51566C17.1041 4.81331 17.3734 5.05819 17.6882 5.22975C18.0031 5.40132 18.3543 5.49458 18.7124 5.50171C19.0705 5.50884 19.4251 5.42964 19.7465 5.27074C20.0678 5.11184 20.3466 4.87787 20.5593 4.58846C20.7721 4.29905 20.9127 3.96262 20.9693 3.60739C21.0259 3.25216 20.9968 2.88847 20.8846 2.54683C20.7724 2.20518 20.5803 1.89553 20.3244 1.64384C20.0685 1.39215 19.7562 1.20575 19.4137 1.10027C18.4807 0.82169 17.4241 1.14128 16.9426 1.98065C16.67 2.45702 16.3518 2.55109 15.8859 2.50526C15.7082 2.48837 15.5257 2.50526 15.3468 2.50526C14.475 2.50526 14.2469 2.73199 14.2457 3.60272C14.2457 5.76145 14.2457 7.92018 14.2457 10.0789C14.2457 10.2912 14.2277 10.5034 14.2157 10.7772H12.8V12.2328L14.2109 12.2292ZM0.0047255 8.49785C0.0047255 10.589 -0.0168904 12.5621 0.0323405 14.5339C0.0383443 14.7823 0.368552 15.1176 0.632718 15.2478C1.64976 15.7543 2.70042 16.1945 3.73907 16.6576C4.33945 16.9241 4.93983 17.1846 5.61585 17.4849C5.61585 15.3383 5.61585 13.2857 5.60504 11.2343C5.59252 11.1614 5.56349 11.0924 5.52018 11.0326C5.47687 10.9728 5.42046 10.9238 5.35529 10.8893C3.61059 10.0994 1.85749 9.32396 0.0047255 8.49785ZM12.0015 8.49785C10.1355 9.32758 8.36918 10.1054 6.61608 10.9098C6.49601 10.9665 6.39514 11.2246 6.39394 11.3922C6.37953 13.3291 6.38554 15.2671 6.39394 17.2039C6.40895 17.2929 6.43392 17.3799 6.46839 17.4632C8.19868 16.689 9.89534 15.9485 11.5692 15.1562C11.7805 15.0561 11.9823 14.687 11.9871 14.4386C12.0159 12.5018 12.0015 10.5649 12.0015 8.49544V8.49785ZM11.6016 7.84902C10.1667 7.23155 8.78945 6.73107 7.50224 6.05812C6.43957 5.49974 5.5282 5.52025 4.47273 6.06777C3.19153 6.73107 1.83107 7.23397 0.396169 7.85023C1.85268 8.49906 3.24196 9.02487 4.53637 9.72314C5.57503 10.2839 6.45158 10.2634 7.48303 9.7135C8.77984 9.01884 10.1643 8.4882 11.6016 7.84661V7.84902Z" fill="#2299D4"/>
<path d="M14.2107 12.229H12.7998V10.7734H14.2131C14.2251 10.4996 14.2431 10.291 14.2431 10.0751C14.2431 7.91641 14.2431 5.75767 14.2431 3.59894C14.2431 2.72821 14.4725 2.5051 15.3442 2.50149C15.5243 2.50149 15.7044 2.48701 15.8833 2.50149C16.3492 2.54731 16.6674 2.45324 16.94 1.97688C17.4203 1.13268 18.4782 0.817916 19.4112 1.0965C19.8722 1.23991 20.2752 1.52827 20.5608 1.91909C20.8464 2.30991 20.9994 2.78252 20.9974 3.26729C20.9926 3.74642 20.8358 4.21155 20.5499 4.59509C20.2639 4.97863 19.8637 5.26061 19.4072 5.40006C18.9508 5.5395 18.462 5.52916 18.0118 5.37052C17.5617 5.21188 17.1736 4.91321 16.904 4.51791C16.5269 3.97401 16.5269 3.97401 15.8077 4.05119V10.6962C16.288 10.8566 16.611 10.7891 16.904 10.2741C17.3987 9.40581 18.4506 9.06813 19.4112 9.35275C19.8678 9.49218 20.2681 9.77454 20.5536 10.1586C20.8391 10.5427 20.9949 11.0084 20.9982 11.4877C21.0016 11.967 20.8523 12.4349 20.5722 12.823C20.2921 13.211 19.8958 13.499 19.4412 13.6449C18.4866 13.9452 17.4203 13.6232 16.9256 12.7561C16.6482 12.2737 16.3396 12.1675 15.8137 12.2833V18.9489C16.294 19.0803 16.6206 19.0212 16.9052 18.5292C17.4143 17.6488 18.4542 17.3171 19.41 17.6126C19.8725 17.7497 20.2779 18.0347 20.5644 18.4244C20.8509 18.814 21.003 19.287 20.9974 19.7713C20.9915 20.2538 20.8322 20.7218 20.5427 21.107C20.2533 21.4921 19.8488 21.7742 19.3883 21.912C18.4277 22.1833 17.3903 21.8227 16.8908 20.9472C16.6734 20.5673 16.4333 20.4551 16.0382 20.4937C15.7786 20.507 15.5185 20.507 15.2589 20.4937C14.5061 20.4853 14.2515 20.2405 14.2491 19.4855C14.2491 17.2665 14.2491 15.0475 14.2491 12.8284C14.2431 12.6608 14.2251 12.4859 14.2107 12.229Z" fill="#2299D4"/>
<path d="M0.00498025 8.49756C1.86135 9.32367 3.60724 10.0991 5.35314 10.8891C5.41831 10.9235 5.47472 10.9725 5.51803 11.0323C5.56134 11.0921 5.59038 11.1611 5.6029 11.234C5.61731 13.2842 5.61371 15.3343 5.61371 17.4846C4.93168 17.1843 4.3325 16.9239 3.73692 16.6573C2.69827 16.1942 1.64761 15.754 0.630572 15.2475C0.368808 15.1173 0.0386004 14.782 0.0301951 14.5336C-0.0166344 12.5569 0.00498025 10.5888 0.00498025 8.49756Z" fill="#2299D4"/>
<path d="M12.0014 8.49536C12.0014 10.5648 12.0158 12.5017 11.9822 14.4361C11.9822 14.6845 11.7756 15.0536 11.5643 15.1537C9.89044 15.946 8.19377 16.6865 6.46348 17.4607C6.42902 17.3774 6.40404 17.2904 6.38903 17.2014C6.38903 15.2646 6.37943 13.3266 6.38903 11.3898C6.38903 11.2233 6.4863 10.9652 6.61118 10.9074C8.36908 10.103 10.1354 9.32509 12.0014 8.49536Z" fill="#2299D4"/>
<path d="M11.6019 7.84645C10.161 8.48804 8.78016 9.01868 7.48334 9.71092C6.45189 10.2609 5.57534 10.2814 4.53669 9.72057C3.24227 9.0223 1.8578 8.49648 0.396484 7.85368C1.82778 7.23742 3.19184 6.73452 4.47305 6.07122C5.52851 5.5237 6.43989 5.5032 7.50255 6.06158C8.78976 6.72849 10.167 7.22898 11.6019 7.84645Z" fill="#2299D4"/>
</svg>
