<svg width="24" height="23" viewBox="0 0 24 23" fill="none" xmlns="http://www.w3.org/2000/svg">
<path d="M17.8333 17.7939C17.8069 18.423 17.6368 19.0395 17.3344 19.6014C17.0319 20.1633 16.6043 20.6576 16.0806 21.0507C15.3336 21.6722 14.3763 22.0252 13.3786 22.047C10.8224 22.0644 8.2662 22.047 5.71001 22.047C4.5954 22.0587 3.51527 21.6843 2.67609 20.9953C2.14019 20.5828 1.71099 20.0615 1.42081 19.4706C1.13064 18.8797 0.987067 18.2347 1.00091 17.5841C1.00091 15.5158 1.00091 13.4505 1.00091 11.3822C1.00091 9.31391 1.02883 7.27476 1.04124 5.22396C1.04827 4.68917 1.16814 4.16099 1.39391 3.66998C1.61968 3.17896 1.94687 2.73485 2.35656 2.36332C2.77553 1.93459 3.28461 1.59208 3.85166 1.35743C4.41871 1.12278 5.03141 1.00107 5.65107 1C8.33135 1 11.0147 1 13.695 1C14.2788 1.04021 14.8418 1.22078 15.3298 1.52435C15.9835 1.84626 16.5457 2.31041 16.9693 2.878C17.393 3.4456 17.6658 4.10016 17.7651 4.787C17.8329 5.37996 17.7651 6 17.8333 10.5727" stroke="#2299D4" stroke-width="1.5"/>
<path d="M7.39136 15.9295V12.1425H19.3688V10.2286L23.4389 13.9661L19.4557 17.7909L19.3875 17.7735V15.9295H7.39136Z" fill="#2299D4"/>
</svg>
