<svg width="17" height="23" viewBox="0 0 17 23" fill="none" xmlns="http://www.w3.org/2000/svg">
<path d="M16.1421 23H0.497741C0.184349 22.8487 0 22.6266 0 22.2531C0.00388102 15.9341 0.00388102 9.61438 0 3.29404C0 2.80905 0.260998 2.55104 0.751947 2.5491C1.50874 2.5491 2.26555 2.5491 3.02234 2.5491C3.08638 2.5491 3.15042 2.5588 3.22901 2.56559C3.22901 2.78383 3.22125 2.98559 3.22901 3.18637C3.22952 3.38054 3.25132 3.57408 3.29401 3.7635C3.53173 4.61223 4.21867 5.09916 5.16757 5.10013C7.26526 5.10013 9.36263 5.10013 11.4597 5.10013C11.6542 5.10277 11.8482 5.08027 12.037 5.0332C12.8694 4.81108 13.372 4.16023 13.3953 3.30083C13.4021 3.0564 13.3953 2.81584 13.3953 2.55589C14.3025 2.55589 15.1777 2.54813 16.0529 2.56462C16.1926 2.585 16.3225 2.6484 16.4245 2.746C16.6127 2.90314 16.6272 3.13399 16.6272 3.36291C16.6272 9.62181 16.6272 15.8814 16.6272 22.1416C16.6428 22.547 16.5157 22.8332 16.1421 23ZM10.9018 12.0888C9.72262 12.0957 8.59411 12.5688 7.76276 13.4049C6.93141 14.2409 6.46478 15.3718 6.4648 16.5507C6.47062 19.0154 8.48681 21.0125 10.9338 20.9912C13.3963 20.965 15.397 18.9542 15.3669 16.5293C15.3378 14.0675 13.3303 12.0733 10.9018 12.0888ZM5.12682 6.98963H2.11904C1.61062 6.98963 1.32149 7.20788 1.31373 7.59684C1.30597 7.9858 1.6048 8.22538 2.12098 8.22538H8.13655C8.21806 8.22538 8.3015 8.22538 8.383 8.21859C8.52381 8.20518 8.65568 8.14359 8.75632 8.04422C8.85697 7.94486 8.92022 7.8138 8.93539 7.67321C8.95056 7.53261 8.91672 7.39109 8.83959 7.27256C8.76245 7.15402 8.64676 7.06574 8.51204 7.02262C8.40309 6.99682 8.29111 6.98605 8.17924 6.9906C7.16241 6.98996 6.14494 6.99028 5.12682 6.99158V6.98963ZM3.84512 13.3352C4.45832 13.3352 5.07152 13.3352 5.6886 13.3352C6.10678 13.3352 6.38913 13.0801 6.3901 12.7134C6.39107 12.3468 6.10969 12.0907 5.6886 12.0898C4.45961 12.0859 3.23289 12.0859 2.00843 12.0898C1.88938 12.0907 1.77181 12.1161 1.66302 12.1644C1.53958 12.2213 1.43939 12.3188 1.37918 12.4406C1.31896 12.5624 1.30237 12.7012 1.33216 12.8337C1.36036 12.9786 1.43959 13.1086 1.55549 13.2001C1.67139 13.2916 1.81626 13.3385 1.96379 13.3323C2.58864 13.341 3.21639 13.3362 3.84512 13.3371V13.3352ZM3.84512 10.7783C4.45832 10.7783 5.07152 10.7783 5.6886 10.7783C6.11163 10.7783 6.39106 10.53 6.39203 10.1614C6.393 9.79286 6.12521 9.54163 5.71286 9.53969C4.47093 9.53387 3.22933 9.53387 1.98805 9.53969C1.58442 9.53969 1.30887 9.81419 1.31664 10.1702C1.3244 10.5262 1.60771 10.7764 2.00746 10.7774C2.61678 10.7822 3.22998 10.7803 3.84318 10.7803L3.84512 10.7783Z" fill="white"/>
<path d="M8.32479 3.85565H5.15886C4.69023 3.85565 4.47386 3.64129 4.47095 3.17667C4.47095 2.7654 4.47095 2.35414 4.47095 1.9419C4.47095 1.48989 4.69314 1.27358 5.15012 1.27164C5.74101 1.27164 6.33287 1.27164 6.92375 1.27164C7.40888 1.27164 7.59516 1.1019 7.66696 0.620796C7.72421 0.243477 7.9755 0.00195169 8.31412 1.17404e-05C8.65274 -0.0019282 8.9118 0.236685 8.96904 0.612064C9.04375 1.10772 9.23004 1.27067 9.72681 1.27164C10.309 1.27164 10.8911 1.27164 11.4781 1.27164C11.9468 1.27164 12.166 1.49086 12.1689 1.95548C12.1689 2.37451 12.1689 2.79354 12.1689 3.21644C12.1689 3.63935 11.9371 3.86341 11.5131 3.86438L8.32479 3.85565Z" fill="white"/>
<path d="M14.0251 17.1617C14.0115 18.0842 13.0034 19.2355 11.9186 19.5867C11.2862 19.7965 10.6041 19.8035 9.96747 19.6067C9.33088 19.4099 8.7717 19.0192 8.36809 18.4892C7.96448 17.9592 7.73661 17.3163 7.71633 16.6505C7.69604 15.9847 7.88437 15.3292 8.25497 14.7756C8.31415 14.8319 8.37334 14.8842 8.42864 14.9405C9.06513 15.5749 9.70647 16.2015 10.3333 16.8494C10.4312 16.9564 10.5515 17.0403 10.6857 17.0953C10.8199 17.1503 10.9646 17.175 11.1095 17.1676C12.0001 17.152 12.8918 17.1617 13.7835 17.1617H14.0251Z" fill="white"/>
<path d="M14.0639 15.9231H12.9888C12.4426 15.9231 11.8963 15.9231 11.351 15.9231C11.2569 15.9259 11.1647 15.896 11.09 15.8387C10.439 15.2004 9.79571 14.5535 9.12817 13.8861C10.0645 13.3041 11.0338 13.1664 12.0486 13.5563C13.1237 13.9657 13.7737 14.762 14.0639 15.9231Z" fill="white"/>
</svg>
