<svg width="15" height="14" viewBox="0 0 15 14" fill="none" xmlns="http://www.w3.org/2000/svg">
<path d="M5.07213 6.95993C3.25838 5.89379 2.84054 4.02945 3.27337 2.61012C3.49769 1.87433 3.94667 1.2272 4.55735 0.759457C5.16802 0.291718 5.90977 0.0268287 6.6786 0.00193134C7.44742 -0.022966 8.20475 0.193377 8.84441 0.620626C9.48407 1.04787 9.97398 1.6646 10.2454 2.38434C10.5673 3.21911 10.5673 4.14371 10.2454 4.97849C9.93066 5.83758 9.34699 6.48214 8.51788 6.95525L8.78395 7.04238C9.065 7.13606 9.19522 7.36746 9.11747 7.61948C9.10056 7.67965 9.07145 7.73569 9.03195 7.78412C8.99245 7.83255 8.9434 7.87233 8.88785 7.90098C8.83231 7.92963 8.77146 7.94654 8.7091 7.95065C8.64674 7.95476 8.5842 7.946 8.52537 7.92489C7.89367 7.74113 7.23716 7.65705 6.57953 7.67569C3.82518 7.74127 1.37437 9.92414 0.99775 12.6532C0.960276 12.9296 0.949033 13.2097 0.927486 13.4879C0.902191 13.8186 0.722315 14.0116 0.446879 13.9995C0.171444 13.9873 0 13.7812 0 13.4523C0 10.5593 1.98613 7.91552 4.80606 7.04519C4.88382 7.02177 4.96533 6.99553 5.07213 6.95993ZM9.56153 3.70155C9.57559 2.22507 8.34362 0.943455 6.89244 0.927528C5.29978 0.910665 4.05096 2.11733 4.03878 3.67532C4.03706 4.03826 4.10684 4.39798 4.24414 4.73395C4.38143 5.06992 4.58356 5.37556 4.83898 5.63341C5.35482 6.15417 6.0564 6.44868 6.78938 6.45216C7.52237 6.45564 8.22671 6.1678 8.74747 5.65196C9.26823 5.13612 9.56274 4.43454 9.56622 3.70155H9.56153Z" fill="#2299D4"/>
<path d="M13.2911 8.76244C13.2733 8.81209 13.2424 8.91234 13.204 9.00977C13.0616 9.37327 13.2499 9.70117 13.6368 9.75925C14.0987 9.83326 14.2289 9.98503 14.2289 10.4506C14.2289 10.6614 14.2336 10.8732 14.2289 11.0849C14.2289 11.4315 14.0415 11.6348 13.6996 11.6732C13.2405 11.7257 13.0438 12.048 13.2246 12.478C13.3604 12.804 13.2864 13.0551 12.9894 13.2359C12.7712 13.3699 12.5482 13.4973 12.3224 13.62C12.0339 13.7774 11.7856 13.7203 11.5851 13.4598C11.2816 13.0654 10.9293 13.0654 10.6229 13.4598C10.4271 13.7109 10.1854 13.7746 9.90344 13.6285C9.65612 13.5001 9.41347 13.3596 9.17738 13.2106C8.92443 13.0495 8.85792 12.8031 8.97034 12.5183C9.15771 12.0396 8.98533 11.736 8.48224 11.6695C8.34924 11.6617 8.22418 11.6036 8.13235 11.5071C8.04052 11.4106 7.98877 11.2828 7.98758 11.1495C7.97353 10.8685 7.97259 10.5874 7.98758 10.3111C8.0035 9.99534 8.18432 9.81546 8.49629 9.7733C8.98533 9.70772 9.16146 9.39856 8.97596 8.93014C8.85604 8.62847 8.93567 8.37833 9.21298 8.21063C9.43314 8.07853 9.65424 7.94644 9.88096 7.82652C10.1817 7.66726 10.4328 7.73284 10.6304 7.99984C10.9115 8.37458 11.2759 8.37458 11.5673 7.99984C11.7912 7.71878 12.031 7.6607 12.3411 7.83308C12.565 7.95674 12.7871 8.0879 13.0072 8.21813C13.1927 8.33242 13.2939 8.49075 13.2911 8.76244ZM11.0858 11.8672C11.3131 11.8713 11.5365 11.8076 11.7275 11.6842C11.9185 11.5608 12.0684 11.3834 12.1582 11.1745C12.248 10.9656 12.2735 10.7347 12.2315 10.5112C12.1896 10.2877 12.082 10.0818 11.9225 9.91972C11.7631 9.75762 11.559 9.64666 11.3363 9.60101C11.1135 9.55535 10.8822 9.57705 10.6718 9.66335C10.4615 9.74965 10.2816 9.89664 10.1551 10.0856C10.0286 10.2745 9.96119 10.4968 9.96153 10.7242C9.95992 10.8732 9.98777 11.021 10.0435 11.1592C10.0992 11.2973 10.1816 11.4231 10.2861 11.5294C10.3906 11.6356 10.515 11.7201 10.6522 11.7781C10.7894 11.836 10.9368 11.8663 11.0858 11.8672Z" fill="#2299D4"/>
</svg>
