<svg width="15" height="18" viewBox="0 0 15 18" fill="none" xmlns="http://www.w3.org/2000/svg">
<path d="M7.2355 0C8.7931 0.0101975 10.0387 0.236397 11.1951 0.826925C12.4458 1.46566 13.4247 2.40522 14.0848 3.6674C14.6338 4.71218 14.8895 5.8288 14.9819 7.00893C15.1013 8.53022 14.6182 9.86748 13.8986 11.1454C13.3128 12.1863 12.6063 13.1527 11.7944 14.0239C10.971 14.9068 10.1296 15.7712 9.27022 16.6173C8.821 17.0581 8.31598 17.441 7.83109 17.8443C7.58361 18.0496 7.40613 18.0542 7.16368 17.8443C6.53149 17.2954 5.89381 16.7517 5.28541 16.1756C4.70262 15.624 4.12258 15.0631 3.59789 14.4564C2.94832 13.7027 2.34312 12.9054 1.73838 12.1105C1.22787 11.4379 0.834465 10.6912 0.507392 9.91198C0.124052 8.99559 -0.0566387 8.04908 0.0156377 7.04231C0.0737333 6.24088 0.198616 5.46169 0.458902 4.70615C0.732895 3.90793 1.14646 3.1662 1.67982 2.51647C2.25621 1.81238 2.96067 1.26959 3.75297 0.85381C4.42474 0.497112 5.15092 0.257375 5.90113 0.144619C6.43131 0.0676744 6.96789 0.0282749 7.2355 0ZM8.28762 7.83679C8.69383 7.83679 9.07351 7.85116 9.45182 7.83169C9.71627 7.82048 9.97872 7.78007 10.2345 7.71117C10.692 7.58046 11.0844 7.0488 11.0703 6.29928C11.0543 5.45381 10.5049 4.87997 9.67597 4.87904C9.05842 4.87904 8.44087 4.87904 7.82332 4.87904C7.45736 4.87904 7.45736 4.87905 7.45736 5.24152C7.45736 6.53939 7.45736 7.83725 7.45736 9.13511C7.45736 9.76829 7.3828 9.67605 8.00172 9.6969C8.23044 9.70478 8.30363 9.64684 8.29449 9.40581C8.27482 8.89084 8.28854 8.37494 8.28854 7.83679H8.28762ZM5.28815 7.3042C5.28815 7.91419 5.28815 8.52419 5.28815 9.13419C5.28815 9.69042 5.28815 9.69042 5.8284 9.69042C6.14632 9.69042 6.14861 9.69042 6.14861 9.36595C6.14861 8.06098 6.14861 6.756 6.14861 5.45103C6.14861 4.75575 6.16874 4.88785 5.5919 4.87765C5.30233 4.87256 5.28998 4.88785 5.28907 5.19378C5.28785 5.89802 5.28785 6.6015 5.28907 7.3042H5.28815Z" fill="#2299D5"/>
<path d="M8.09998 7.19336V5.41518C8.55491 5.41518 8.9988 5.37323 9.43632 5.42878C9.77614 5.47192 9.92056 5.85603 9.89763 6.44935C9.89418 6.6436 9.83718 6.82856 9.73842 6.96595C9.63966 7.10335 9.50671 7.18265 9.36708 7.18745C8.9508 7.21168 8.53367 7.19336 8.09998 7.19336Z" fill="#2299D5"/>
</svg>
