<svg width="18" height="18" viewBox="0 0 18 18" fill="none" xmlns="http://www.w3.org/2000/svg">
<path d="M0 9.9V8.01C0.0327607 7.92844 0.0592379 7.8445 0.0792 7.7589C0.6462 4.0086 3.2958 1.1133 6.9687 0.2367C7.3431 0.1467 7.7229 0.0783 8.1 0H9.9C9.99737 0.0326509 10.0965 0.0596953 10.197 0.081C13.9113 0.7029 16.38 2.8071 17.595 6.3585C17.7876 6.9192 17.865 7.5186 18 8.1V9.9C17.9667 10.0449 17.928 10.1889 17.9019 10.3347C17.2611 13.8879 15.246 16.2843 11.8566 17.5239C11.2266 17.7525 10.5534 17.8452 9.9 18H8.1C7.98618 17.9655 7.8705 17.9376 7.7535 17.9163C6.01148 17.6766 4.37862 16.9292 3.05866 15.7673C1.73871 14.6055 0.790098 13.0807 0.3312 11.3832C0.1998 10.8945 0.1098 10.395 0 9.9ZM15.1695 13.797C17.2494 11.439 17.9055 6.507 14.3118 3.2094C10.9485 0.1197 5.7807 0.5148 2.88 4.0608C0.5967 6.8508 0.576 12.1059 2.8512 13.7754L2.9799 13.5387C3.9069 11.8395 5.337 10.8711 7.2639 10.7586C8.5329 10.6857 9.81 10.7586 11.0835 10.7847C11.3676 10.8021 11.6478 10.8594 11.916 10.9548C13.3938 11.43 14.4414 12.4029 15.1695 13.797Z" fill="#2299D5"/>
<path d="M9 3.3714C9.8994 3.37462 10.7607 3.735 11.3944 4.37325C12.0281 5.0115 12.3823 5.87535 12.3791 6.77475C12.3758 7.67415 12.0155 8.53544 11.3772 9.16913C10.7389 9.80283 9.8751 10.157 8.9757 10.1538C7.1244 10.1448 5.5881 8.6085 5.5953 6.7752C5.59956 5.87361 5.95967 5.01018 6.59728 4.37274C7.23489 3.7353 8.09841 3.37542 9 3.3714Z" fill="#2299D5"/>
<path d="M0 9.9V8.01C0.0327607 7.92844 0.0592379 7.8445 0.0792 7.7589C0.6462 4.0086 3.2958 1.1133 6.9687 0.2367C7.3431 0.1467 7.7229 0.0783 8.1 0H9.9C9.99737 0.0326509 10.0965 0.0596953 10.197 0.081C13.9113 0.7029 16.38 2.8071 17.595 6.3585C17.7876 6.9192 17.865 7.5186 18 8.1V9.9C17.9667 10.0449 17.928 10.1889 17.9019 10.3347C17.2611 13.8879 15.246 16.2843 11.8566 17.5239C11.2266 17.7525 10.5534 17.8452 9.9 18H8.1C7.98618 17.9655 7.8705 17.9376 7.7535 17.9163C6.01148 17.6766 4.37862 16.9292 3.05866 15.7673C1.73871 14.6055 0.790098 13.0807 0.3312 11.3832C0.1998 10.8945 0.1098 10.395 0 9.9ZM15.1695 13.797C17.2494 11.439 17.9055 6.507 14.3118 3.2094C10.9485 0.1197 5.7807 0.5148 2.88 4.0608C0.5967 6.8508 0.576 12.1059 2.8512 13.7754L2.9799 13.5387C3.9069 11.8395 5.337 10.8711 7.2639 10.7586C8.5329 10.6857 9.81 10.7586 11.0835 10.7847C11.3676 10.8021 11.6478 10.8594 11.916 10.9548C13.3938 11.43 14.4414 12.4029 15.1695 13.797Z" fill="#2299D5"/>
<path d="M9 3.3714C9.8994 3.37462 10.7607 3.735 11.3944 4.37325C12.0281 5.0115 12.3823 5.87535 12.3791 6.77475C12.3758 7.67415 12.0155 8.53544 11.3772 9.16913C10.7389 9.80283 9.8751 10.157 8.9757 10.1538C7.1244 10.1448 5.5881 8.6085 5.5953 6.7752C5.59956 5.87361 5.95967 5.01018 6.59728 4.37274C7.23489 3.7353 8.09841 3.37542 9 3.3714Z" fill="#2299D5"/>
</svg>
