<svg width="13" height="11" viewBox="0 0 13 11" fill="none" xmlns="http://www.w3.org/2000/svg">
<path d="M13 3.04847C12.9415 3.17216 12.8754 3.29208 12.8272 3.41955C12.7894 3.51963 12.7394 3.53002 12.6535 3.48187C12.6002 3.45728 12.5457 3.43554 12.4901 3.41671V10.5172C12.4901 10.6844 12.4901 10.6853 12.3211 10.6853C11.9906 10.6853 11.6602 10.6853 11.3287 10.6853C11.2069 10.6853 11.1682 10.656 11.1682 10.5286C11.1726 9.05559 11.1726 7.58292 11.1682 6.11057C11.1682 5.23434 11.1682 4.3581 11.1682 3.48187C11.1682 3.36384 11.1352 3.33079 11.0171 3.33079C8.02901 3.33457 5.04055 3.33457 2.05179 3.33079C1.88749 3.33079 1.88749 3.33079 1.88749 3.50358V10.5182C1.88749 10.6863 1.88749 10.6863 1.71942 10.6863C1.38422 10.6863 1.04903 10.6863 0.713829 10.6863C0.6043 10.6863 0.565587 10.6608 0.566531 10.5437C0.566531 8.51675 0.566531 6.48983 0.566531 4.46291C0.566531 4.16265 0.566531 3.86207 0.566531 3.56118C0.566531 3.51963 0.566531 3.47903 0.558977 3.42616C0.53086 3.43128 0.503105 3.43822 0.475886 3.44693C0.278544 3.52341 0.278544 3.52341 0.197342 3.33362L0 2.86435C0.0481551 2.84074 0.0887565 2.81902 0.130302 2.80014C2.1226 1.90408 4.11963 1.01651 6.10532 0.103451C6.23987 0.0340598 6.38933 -0.00143642 6.54071 4.45082e-05C6.6921 0.00152544 6.84083 0.0399388 6.974 0.111949C8.94081 1.01273 10.918 1.89275 12.8914 2.77937C12.9264 2.79447 12.9641 2.80486 13 2.81714V3.04847Z" fill="#2299D4"/>
<path d="M6.16194 8.37764H5.6785C5.00905 8.37764 4.33865 8.37764 3.6692 8.37764C3.55495 8.37764 3.5219 8.34459 3.52285 8.23128C3.52851 7.65531 3.52851 7.07996 3.52285 6.50525C3.52285 6.39194 3.5474 6.34757 3.67203 6.34851C4.4614 6.34851 5.25171 6.34851 6.04202 6.34851C6.11378 6.34851 6.1761 6.34001 6.17516 6.4486C6.17516 7.06706 6.17516 7.68552 6.17516 8.30399C6.17242 8.32881 6.168 8.35341 6.16194 8.37764Z" fill="#2299D4"/>
<path d="M7.85678 8.37764C7.46681 8.37764 7.07591 8.37764 6.68594 8.37764C6.5783 8.37764 6.53581 8.35592 6.53676 8.23695C6.54242 7.65342 6.53676 7.0699 6.53676 6.48637C6.53676 6.38062 6.56603 6.34662 6.67367 6.34757C7.46744 6.35135 8.26122 6.35135 9.05499 6.34757C9.16263 6.34757 9.19473 6.38062 9.19379 6.48637C9.18938 7.0699 9.18938 7.65342 9.19379 8.23695C9.19379 8.34459 9.1598 8.37669 9.0531 8.37575C8.65464 8.37008 8.25524 8.37575 7.85583 8.37575L7.85678 8.37764Z" fill="#2299D4"/>
<path d="M7.86163 8.67507V9.03198C7.86163 9.52958 7.86163 10.0281 7.86163 10.5257C7.86163 10.6438 7.83802 10.69 7.70772 10.6891C6.92213 10.6834 6.13528 10.6834 5.34717 10.6891C5.22631 10.6891 5.1961 10.6523 5.19704 10.5352C5.19704 9.95165 5.19704 9.36718 5.19704 8.78365C5.19704 8.69867 5.21687 8.66185 5.31129 8.66185C6.1271 8.66185 6.9429 8.66185 7.75871 8.66185C7.78892 8.66468 7.81442 8.67034 7.86163 8.67507Z" fill="#2299D4"/>
<path d="M3.50489 10.6862C3.11398 10.6862 2.72402 10.6862 2.33311 10.6862C2.23208 10.6862 2.18865 10.6655 2.18959 10.5522C2.19526 9.96864 2.19526 9.38512 2.18959 8.80159C2.18959 8.68451 2.22736 8.65901 2.33783 8.65996C3.1272 8.66373 3.91688 8.66373 4.70688 8.65996C4.8013 8.65996 4.84379 8.6779 4.84284 8.78648C4.83718 9.37441 4.83718 9.96235 4.84284 10.5503C4.84284 10.6598 4.80791 10.6881 4.7031 10.6862C4.30464 10.6862 3.90524 10.6862 3.50583 10.6862H3.50489Z" fill="#2299D4"/>
<path d="M9.54416 10.6863C9.14948 10.6863 8.75385 10.6863 8.35917 10.6863C8.25247 10.6863 8.22131 10.6532 8.22131 10.5475C8.22698 9.96393 8.22698 9.38009 8.22131 8.79593C8.22131 8.69018 8.25153 8.65807 8.35917 8.65902C9.15294 8.66279 9.94703 8.66279 10.7414 8.65902C10.8425 8.65902 10.8746 8.68734 10.8736 8.78932C10.8686 9.37788 10.8686 9.96613 10.8736 10.5541C10.8736 10.656 10.8434 10.6872 10.7414 10.6853C10.342 10.6853 9.94357 10.6853 9.54416 10.6853V10.6863Z" fill="#2299D4"/>
<path d="M6.5462 4.95957C7.90682 4.95957 9.26744 4.95957 10.6281 4.95957C10.7593 4.95957 10.798 4.99167 10.7923 5.12292C10.782 5.36086 10.7923 5.36086 10.5506 5.36086C7.8766 5.36086 5.20132 5.36086 2.52477 5.36086C2.23395 5.36086 2.28022 5.40335 2.26794 5.1097C2.26794 4.98884 2.30571 4.95957 2.42185 4.96051C3.79947 4.96146 5.17236 4.95957 6.5462 4.95957Z" fill="#2299D4"/>
<path d="M10.7821 4.03612H10.5753C7.85215 4.03612 5.12966 4.03612 2.40779 4.03612C2.30204 4.03612 2.2671 4.00968 2.26993 3.90015C2.27749 3.63955 2.26993 3.63955 2.52865 3.63955H10.529C10.8255 3.63955 10.784 3.59328 10.7868 3.89827C10.7906 3.93792 10.7858 3.97664 10.7821 4.03612Z" fill="#2299D4"/>
<path d="M6.51985 4.69896C5.15923 4.69896 3.79767 4.69896 2.43705 4.69896C2.30486 4.69896 2.2652 4.66308 2.27181 4.53372C2.28692 4.26557 2.24254 4.29861 2.50786 4.29861C5.22092 4.29861 7.93429 4.29861 10.648 4.29861C10.7622 4.29861 10.7981 4.33072 10.7924 4.44402C10.7773 4.73484 10.8349 4.69802 10.5384 4.69802C9.19891 4.69802 7.85938 4.69802 6.51985 4.69802V4.69896Z" fill="#2299D4"/>
</svg>
